<svg width="182" height="55" viewBox="0 0 182 55" fill="none" xmlns="http://www.w3.org/2000/svg">
<path d="M175.155 52.9858H6.85095C3.44017 52.9858 0.67627 50.2171 0.67627 46.8003V6.85937C0.67627 3.44259 3.44017 0.673828 6.85095 0.673828H175.155C178.566 0.673828 181.33 3.44259 181.33 6.85937V46.8003C181.33 50.2171 178.566 52.9858 175.155 52.9858Z" fill="black"/>
<mask id="mask0_134_1971" style="mask-type:luminance" maskUnits="userSpaceOnUse" x="0" y="0" width="182" height="55">
<path d="M0 0H181.999V54.459H0V0Z" fill="white"/>
</mask>
<g mask="url(#mask0_134_1971)">
<path d="M6.84769 1.35102C3.81589 1.35102 1.34928 3.82197 1.34928 6.8591V46.8C1.34928 49.8372 3.81589 52.3081 6.84769 52.3081H175.155C178.187 52.3081 180.653 49.8372 180.653 46.8V6.8591C180.653 3.82197 178.187 1.35102 175.155 1.35102H6.84769ZM175.155 53.663H6.84769C3.071 53.663 0 50.5834 0 46.8V6.8591C0 3.07577 3.071 -0.00390625 6.84769 -0.00390625H175.155C178.932 -0.00390625 182.003 3.07577 182.003 6.8591V46.8C182.003 50.5834 178.932 53.663 175.155 53.663Z" fill="#A7A9AB"/>
</g>
<path d="M63.1123 14.0437L62.4196 11.8705C62.2498 11.3338 62.106 10.7349 61.9753 10.2243H61.9492C61.8218 10.7349 61.6878 11.3469 61.5343 11.8705L60.8547 14.0437H63.1123ZM60.5934 15.2579L59.8354 17.7583H58.1758L60.9985 8.94141H63.0469L65.9056 17.7583H64.1838L63.3867 15.2579" fill="white"/>
<path d="M68.3069 11.3887L69.3393 14.6156C69.5222 15.1785 69.6497 15.6891 69.7673 16.2127H69.8065C69.9241 15.6891 70.0678 15.1916 70.2377 14.6156L71.257 11.3887H72.9395L70.5121 17.7575H68.9342L66.5688 11.3887" fill="white"/>
<path d="M77.7848 14.6423C76.6479 14.6292 75.5632 14.8648 75.5632 15.8335C75.5632 16.4619 75.9683 16.7499 76.478 16.7499C77.1281 16.7499 77.5888 16.331 77.7423 15.8728C77.7848 15.755 77.7848 15.6372 77.7848 15.5194V14.6423ZM79.3497 16.2263C79.3497 16.8023 79.3758 17.3652 79.4542 17.7547H78.0037L77.8893 17.051H77.8469C77.4712 17.5452 76.8047 17.8987 75.9683 17.8987C74.6876 17.8987 73.9722 16.9725 73.9722 16.0037C73.9722 14.4066 75.3933 13.5852 77.7423 13.5982V13.4935C77.7423 13.0746 77.5757 12.3808 76.4518 12.3808C75.8246 12.3808 75.1712 12.5771 74.7399 12.852L74.4263 11.8048C74.8967 11.5168 75.72 11.2451 76.7263 11.2451C78.7616 11.2451 79.3497 12.5379 79.3497 13.9386" fill="white"/>
<path d="M81.6203 11.3889H83.2244V17.7578H81.6203V11.3889ZM82.4142 10.4726C81.8816 10.4726 81.5288 10.0798 81.5288 9.60855C81.5288 9.11109 81.8914 8.73145 82.4305 8.73145C82.9761 8.73145 83.3159 9.11109 83.3289 9.60855C83.3289 10.0798 82.9761 10.4726 82.4305 10.4726" fill="white"/>
<path d="M85.5342 17.7583H87.1416V8.45703H85.5342V17.7583Z" fill="white"/>
<path d="M92.8326 14.6423C91.6957 14.6292 90.6111 14.8648 90.6111 15.8335C90.6111 16.4619 91.0162 16.7499 91.5258 16.7499C92.1792 16.7499 92.6366 16.331 92.7934 15.8728C92.8326 15.755 92.8326 15.6372 92.8326 15.5194V14.6423ZM94.3975 16.2263C94.3975 16.8023 94.4237 17.3652 94.5021 17.7547H93.0548L92.9372 17.051H92.898C92.519 17.5452 91.8525 17.8987 91.0162 17.8987C89.7388 17.8987 89.02 16.9725 89.02 16.0037C89.02 14.4066 90.4444 13.5852 92.7934 13.5982V13.4935C92.7934 13.0746 92.6235 12.3808 91.4997 12.3808C90.8724 12.3808 90.219 12.5771 89.791 12.852L89.4774 11.8048C89.9479 11.5168 90.7679 11.2451 91.7741 11.2451C93.8095 11.2451 94.3975 12.5379 94.3975 13.9386" fill="white"/>
<path d="M98.2754 15.1269C98.2754 15.2579 98.2884 15.3888 98.3146 15.5066C98.4845 16.1611 99.0464 16.6324 99.7357 16.6324C100.742 16.6324 101.356 15.8339 101.356 14.5411C101.356 13.4153 100.82 12.4989 99.7488 12.4989C99.0954 12.4989 98.4975 12.9702 98.3276 13.6771C98.3015 13.7949 98.2754 13.9389 98.2754 14.096V15.1269ZM96.668 8.45703H98.2754V12.2633H98.3015C98.6936 11.648 99.3829 11.2454 100.337 11.2454C101.892 11.2454 102.999 12.5382 102.986 14.4757C102.986 16.7633 101.539 17.9023 100.102 17.9023C99.2783 17.9023 98.5498 17.5881 98.0924 16.8026H98.0663L97.9879 17.7583H96.6157C96.6419 17.3262 96.668 16.6193 96.668 15.9779" fill="white"/>
<path d="M104.878 17.7583H106.482V8.45703H104.878V17.7583Z" fill="white"/>
<path d="M112.735 13.8993C112.748 13.3102 112.487 12.3415 111.419 12.3415C110.425 12.3415 110.007 13.2448 109.942 13.8993H112.735ZM109.942 15.0219C109.981 16.1739 110.883 16.6714 111.902 16.6714C112.644 16.6714 113.166 16.5536 113.663 16.3834L113.898 17.4798C113.349 17.7187 112.591 17.8856 111.68 17.8856C109.615 17.8856 108.4 16.619 108.4 14.6717C108.4 12.9044 109.471 11.2451 111.51 11.2451C113.572 11.2451 114.251 12.9437 114.251 14.3444C114.251 14.6455 114.225 14.8812 114.199 15.0219" fill="white"/>
<path d="M122.226 16.7368C123.137 16.7368 123.778 15.8466 123.778 14.5539C123.778 13.559 123.333 12.407 122.239 12.407C121.102 12.407 120.645 13.5197 120.645 14.5801C120.645 15.8074 121.259 16.7368 122.21 16.7368H122.226ZM122.174 17.9019C120.383 17.9019 118.988 16.6714 118.988 14.6193C118.988 12.5248 120.357 11.2451 122.278 11.2451C124.17 11.2451 125.437 12.5771 125.437 14.5146C125.437 16.8547 123.791 17.9019 122.187 17.9019" fill="white"/>
<path d="M127.326 13.2841C127.326 12.551 127.303 11.9357 127.277 11.3858H128.672L128.75 12.3415H128.789C129.077 11.844 129.77 11.2451 130.828 11.2451C131.936 11.2451 133.086 11.9619 133.086 13.9779V17.7547H131.478V14.1612C131.478 13.2448 131.138 12.551 130.266 12.551C129.626 12.551 129.182 13.0091 129.012 13.4935C128.959 13.6244 128.933 13.8208 128.933 14.0041V17.7547H127.326" fill="white"/>
<path d="M140.485 9.75293V11.386H142.011V12.5904H140.485V15.3886C140.485 16.1741 140.694 16.5668 141.305 16.5668C141.593 16.5668 141.75 16.5538 141.933 16.5014L141.959 17.7156C141.724 17.8105 141.292 17.8858 140.796 17.8858C140.198 17.8858 139.714 17.6894 139.414 17.3654C139.061 16.9989 138.904 16.4098 138.904 15.5719V12.5904H138.002V11.386H138.904V10.198" fill="white"/>
<path d="M143.798 8.45703H145.406V12.2502H145.432C145.628 11.9491 145.902 11.7004 146.229 11.5302C146.556 11.3502 146.931 11.2454 147.337 11.2454C148.421 11.2454 149.555 11.9622 149.555 14.0044V17.7583H147.951V14.1746C147.951 13.2582 147.611 12.5513 146.722 12.5513C146.098 12.5513 145.654 12.9702 145.471 13.4546C145.419 13.5986 145.406 13.7687 145.406 13.9389V17.7583H143.798" fill="white"/>
<path d="M155.768 13.8993C155.782 13.3102 155.52 12.3415 154.449 12.3415C153.455 12.3415 153.04 13.2448 152.975 13.8993H155.768ZM152.975 15.0219C153.014 16.1739 153.913 16.6714 154.932 16.6714C155.677 16.6714 156.2 16.5536 156.693 16.3834L156.932 17.4798C156.383 17.7187 155.625 17.8856 154.71 17.8856C152.648 17.8856 151.433 16.619 151.433 14.6717C151.433 12.9044 152.505 11.2451 154.54 11.2451C156.602 11.2451 157.281 12.9437 157.281 14.3444C157.281 14.6455 157.255 14.8812 157.229 15.0219" fill="white"/>
<path d="M40.619 26.3068C40.5765 21.9442 44.1833 19.8202 44.3499 19.722C42.308 16.7372 39.1423 16.3314 38.0282 16.2987C35.3721 16.0205 32.7944 17.8958 31.4419 17.8958C30.0599 17.8958 27.9723 16.3281 25.7279 16.3739C22.8333 16.4197 20.1282 18.0987 18.645 20.7005C15.587 26.0123 17.8674 33.8145 20.8012 38.1084C22.2714 40.2095 23.9833 42.5594 26.2277 42.4743C28.4232 42.3827 29.2432 41.0736 31.8927 41.0736C34.5194 41.0736 35.2905 42.4743 37.5806 42.4219C39.9362 42.3827 41.4194 40.311 42.834 38.187C44.5329 35.7782 45.2124 33.4054 45.2386 33.2844C45.183 33.2647 40.6647 31.5367 40.619 26.3068Z" fill="white"/>
<path d="M36.2935 13.477C37.4729 11.9977 38.2863 9.98166 38.0577 7.93945C36.349 8.018 34.2124 9.1242 32.9807 10.5708C31.8928 11.8471 30.9159 13.9384 31.1708 15.9021C33.0918 16.0461 35.0618 14.9334 36.2935 13.477Z" fill="white"/>
<path d="M67.1146 34.6356L65.5987 29.9457C65.4386 29.4679 65.138 28.3388 64.6937 26.565H64.6414C64.465 27.3275 64.1775 28.4566 63.7887 29.9457L62.299 34.6356H67.1146ZM72.3549 42.127H69.2937L67.6177 36.8513H61.7959L60.1983 42.127H57.2188L62.9949 24.166H66.5559" fill="white"/>
<path d="M84.2729 35.5978C84.2729 34.3345 83.9887 33.297 83.4202 32.4788C82.7995 31.6279 81.9664 31.1991 80.9209 31.1991C80.212 31.1991 79.5651 31.4381 78.9934 31.9061C78.4184 32.3806 78.0394 32.9959 77.8597 33.7617C77.7715 34.1152 77.729 34.4065 77.729 34.6356V36.7956C77.729 37.7381 78.0165 38.5334 78.5915 39.1814C79.1698 39.8327 79.9179 40.1535 80.8392 40.1535C81.9239 40.1535 82.7668 39.7378 83.3647 38.9C83.9723 38.0654 84.2729 36.9658 84.2729 35.5978ZM87.2001 35.4898C87.2001 37.6923 86.6055 39.4367 85.4164 40.7131C84.3513 41.852 83.0282 42.4182 81.4534 42.4182C79.7481 42.4182 78.5262 41.8029 77.7813 40.5789H77.729V47.4027H74.8541V33.4377C74.8541 32.0533 74.8214 30.633 74.7495 29.1733H77.2749L77.435 31.2286H77.4905C78.4478 29.6806 79.9016 28.9082 81.852 28.9082C83.3745 28.9082 84.6519 29.5137 85.6679 30.7213C86.6872 31.9322 87.2001 33.5195 87.2001 35.4898Z" fill="white"/>
<path d="M99.1412 35.5978C99.1412 34.3345 98.857 33.297 98.2885 32.4788C97.6678 31.6279 96.8347 31.1991 95.7892 31.1991C95.0803 31.1991 94.4367 31.4381 93.8617 31.9061C93.2834 32.3806 92.911 32.9959 92.7346 33.7617C92.6431 34.1152 92.6006 34.4065 92.6006 34.6356V36.7956C92.6006 37.7381 92.8849 38.5334 93.4598 39.1814C94.0381 39.8327 94.7863 40.1535 95.7108 40.1535C96.7922 40.1535 97.6351 39.7378 98.2362 38.9C98.8374 38.0654 99.1412 36.9658 99.1412 35.5978ZM102.065 35.4898C102.065 37.6923 101.474 39.4367 100.285 40.7131C99.2196 41.852 97.8997 42.4182 96.3218 42.4182C94.6196 42.4182 93.3978 41.8029 92.6496 40.5789H92.6006V47.4027H89.7256V33.4377C89.7256 32.0533 89.6897 30.633 89.6211 29.1733H92.1465L92.3066 31.2286H92.3621C93.3161 29.6806 94.7699 28.9082 96.7203 28.9082C98.246 28.9082 99.5169 29.5137 100.539 30.7213C101.559 31.9322 102.065 33.5195 102.065 35.4898Z" fill="white"/>
<path d="M118.694 37.09C118.694 38.6151 118.165 39.8588 117.1 40.821C115.93 41.8683 114.307 42.3919 112.219 42.3919C110.288 42.3919 108.74 42.0188 107.567 41.2726L108.233 38.8769C109.498 39.6395 110.88 40.0191 112.389 40.0191C113.47 40.0191 114.313 39.777 114.918 39.2893C115.519 38.7984 115.819 38.1438 115.819 37.3257C115.819 36.5991 115.574 35.9805 115.078 35.4831C114.581 34.9856 113.755 34.5242 112.601 34.0954C109.462 32.9205 107.894 31.2023 107.894 28.9441C107.894 27.4681 108.442 26.2571 109.543 25.3146C110.641 24.372 112.105 23.8975 113.931 23.8975C115.565 23.8975 116.92 24.1855 118.002 24.7517L117.283 27.0982C116.274 26.5484 115.13 26.2702 113.853 26.2702C112.84 26.2702 112.053 26.519 111.487 27.0164C111.01 27.4615 110.769 28.0048 110.769 28.643C110.769 29.3532 111.04 29.939 111.592 30.4005C112.069 30.8259 112.938 31.2874 114.199 31.7881C115.741 32.4099 116.875 33.1365 117.603 33.9711C118.328 34.8056 118.694 35.8464 118.694 37.09Z" fill="white"/>
<path d="M128.188 31.3329H125.023V37.6199C125.023 39.2203 125.581 40.0189 126.702 40.0189C127.212 40.0189 127.64 39.9763 127.976 39.888L128.055 42.0709C127.493 42.2869 126.744 42.3916 125.823 42.3916C124.689 42.3916 123.801 42.0447 123.161 41.3542C122.523 40.6603 122.203 39.4952 122.203 37.8621V31.3329H120.315V29.1729H122.203V26.8034L125.023 25.9492V29.1729H128.188" fill="white"/>
<path d="M139.496 35.637C139.496 34.4425 139.238 33.4214 138.721 32.5639C138.123 31.5297 137.261 31.0126 136.144 31.0126C134.99 31.0126 134.112 31.5297 133.51 32.5639C132.994 33.4214 132.743 34.4621 132.743 35.6927C132.743 36.8872 132.994 37.9083 133.51 38.7625C134.131 39.7967 135 40.3138 136.121 40.3138C137.215 40.3138 138.078 39.7902 138.698 38.7363C139.231 37.8658 139.496 36.8316 139.496 35.637ZM142.475 35.5454C142.475 37.5352 141.91 39.1684 140.773 40.448C139.584 41.7637 138.006 42.4182 136.039 42.4182C134.138 42.4182 132.628 41.7866 131.501 40.5266C130.377 39.2665 129.815 37.676 129.815 35.7581C129.815 33.7486 130.394 32.1057 131.557 30.8293C132.717 29.5464 134.281 28.9082 136.248 28.9082C138.146 28.9082 139.675 29.5398 140.825 30.7999C141.926 32.0304 142.475 33.6079 142.475 35.5454Z" fill="white"/>
<path d="M151.812 31.7064C151.528 31.6541 151.227 31.6279 150.907 31.6279C149.898 31.6279 149.114 32.0108 148.565 32.7733C148.088 33.4508 147.849 34.3017 147.849 35.3294V42.1269H144.978L145.001 33.2544C145.001 31.7588 144.965 30.4006 144.896 29.1733H147.399L147.503 31.6541H147.578C147.882 30.8031 148.362 30.1159 149.016 29.602C149.656 29.1406 150.349 28.9082 151.094 28.9082C151.358 28.9082 151.6 28.9278 151.812 28.9606" fill="white"/>
<path d="M161.917 34.2927C161.937 33.4418 161.75 32.7021 161.362 32.0803C160.865 31.2818 160.097 30.8792 159.071 30.8792C158.134 30.8792 157.369 31.2719 156.785 32.0541C156.308 32.676 156.02 33.4221 155.938 34.2927H161.917ZM164.655 35.0389C164.655 35.556 164.622 35.988 164.554 36.3447H155.938C155.968 37.6244 156.386 38.603 157.186 39.2771C157.912 39.8826 158.853 40.1804 160.006 40.1804C161.28 40.1804 162.443 39.9775 163.492 39.5684L163.943 41.5681C162.717 42.0983 161.273 42.3699 159.604 42.3699C157.601 42.3699 156.027 41.7775 154.883 40.5928C153.743 39.4146 153.168 37.8273 153.168 35.8375C153.168 33.8836 153.697 32.257 154.766 30.961C155.88 29.5734 157.389 28.8828 159.284 28.8828C161.146 28.8828 162.561 29.5734 163.518 30.961C164.279 32.0607 164.655 33.4221 164.655 35.0389Z" fill="white"/>
</svg>
