<svg width="1em" height="1em" viewBox="0 0 24 24" fill="none" xmlns="http://www.w3.org/2000/svg"><g><path d="M22.0071 2.85346V6.86755C22.0071 7.32711 21.6038 7.72101 21.1349 7.72101H14.1009C13.6319 7.72101 13.2286 7.35524 13.2286 6.86755V2.85346C13.2286 2.39391 13.6319 2 14.1009 2H21.1349C21.6038 2 22.0071 2.39391 22.0071 2.85346Z" fill="var(--color-primary-400)"></path><path d="M17.3083 7.7298L16.558 9.07095C16.4924 9.16474 16.3986 9.19288 16.3048 9.12723C16.2767 9.09909 16.2392 9.07095 16.2392 9.03344L15.8077 7.7298H17.299H17.3083Z" fill="var(--color-primary-400)"></path><path d="M20.9192 2.85346V6.86755C20.9192 7.32711 20.5159 7.72101 20.047 7.72101H14.1009C13.6319 7.72101 13.2286 7.35524 13.2286 6.86755V2.85346C13.2286 2.39391 13.6319 2 14.1009 2H20.047C20.5159 2 20.9192 2.39391 20.9192 2.85346Z" fill="var(--color-primary-300)"></path><path d="M16.9332 7.7298L16.3424 9.07095C16.3424 9.07095 16.3142 9.12723 16.2767 9.12723C16.2486 9.09909 16.2111 9.07095 16.2111 9.03344L15.7797 7.7298H16.9332Z" fill="var(--color-primary-300)"></path><path d="M17.9369 15.6454V21.0007H3.32483V15.6454C3.32483 13.5915 4.74101 11.8564 6.64489 11.3781C6.7293 11.35 6.83247 11.3312 6.92625 11.3219C7.17948 11.275 7.45146 11.2468 7.72344 11.2468H8.11735C8.59566 11.4907 9.11149 11.6782 9.65546 11.772C9.96496 11.8095 10.312 11.8564 10.6121 11.8564C11.5031 11.8564 12.3471 11.6314 13.0881 11.2468H13.5195C13.8196 11.2468 14.1103 11.275 14.3917 11.3312C14.523 11.3594 14.6356 11.3875 14.7669 11.4344C15.142 11.5469 15.5078 11.7158 15.836 11.9221C17.0928 12.6818 17.9275 14.0698 17.9275 15.6548L17.9369 15.6454Z" fill="var(--color-primary-300)"></path><path d="M17.9368 15.6464V21.0016H9.56165C14.5511 19.3416 15.8923 13.8644 15.8454 11.9136C17.1021 12.6733 17.9368 14.0614 17.9368 15.6464Z" fill="var(--color-primary-400)"></path><path d="M14.3541 6.77431C14.3541 8.78135 12.6753 10.4226 10.6214 10.4226C10.4056 10.4226 10.1524 10.3945 9.9367 10.3664C8.19226 10.0662 6.88862 8.57502 6.88862 6.77431C6.88862 4.9736 8.19226 3.51989 9.9367 3.18226C10.1524 3.15412 10.3681 3.12599 10.6214 3.12599C12.6753 3.12599 14.3541 4.76726 14.3541 6.77431Z" fill="var(--color-primary-100)"></path><path fill-rule="evenodd" clip-rule="evenodd" d="M9.98483 3.47853C8.37471 3.79422 7.18862 5.13151 7.18862 6.77431C7.18862 8.42286 8.38009 9.79128 9.98165 10.0697C10.1947 10.0974 10.4285 10.1226 10.6214 10.1226C12.5161 10.1226 14.0541 8.60926 14.0541 6.77431C14.0541 4.93936 12.5161 3.42599 10.6214 3.42599C10.3934 3.42599 10.1979 3.45075 9.98483 3.47853ZM9.90351 2.88405C10.1167 2.85624 10.3486 2.82599 10.6214 2.82599C12.8345 2.82599 14.6541 4.59517 14.6541 6.77431C14.6541 8.95345 12.8345 10.7226 10.6214 10.7226C10.3846 10.7226 10.1147 10.6921 9.8979 10.6638L9.8858 10.6623C8.00146 10.3381 6.58862 8.72514 6.58862 6.77431C6.58862 4.8187 8.00545 3.25048 9.8797 2.88773L9.88875 2.88597L9.90351 2.88405Z" fill="var(--color-primary-300)"></path><path d="M8.81114 13.9857C8.81114 13.9857 8.76425 14.0326 8.72674 14.0326H8.6986C8.67046 13.9764 8.54854 13.7888 8.45475 13.695C8.42662 13.6669 8.42662 13.7231 8.37034 13.6669C7.80762 12.9916 6.87913 13.1792 6.6259 14.0889C6.58839 14.1452 6.58839 14.117 6.56025 14.1452C6.50398 14.2671 6.50398 14.4828 6.50398 14.5672C6.50398 14.5672 6.50398 14.5954 6.47584 14.5954H6.34454C6.34454 14.5954 6.31641 14.5954 6.31641 14.5672C6.31641 14.5109 6.37268 14.1452 6.37268 14.1077C6.37268 14.0233 6.31641 14.0795 6.37268 13.9295C6.47584 13.5637 6.69155 13.3198 6.90727 13.1417L6.9354 13.1135L7.01981 12.9259C7.01981 12.9259 7.05732 12.8415 7.05732 12.804L6.66342 11.3691C6.74783 11.3409 6.85099 11.3222 6.94478 11.3128L7.33869 12.7759C7.33869 12.7759 7.36682 12.8603 7.42309 12.8603L7.58253 12.9822C7.58253 12.9822 7.61067 13.0104 7.63881 13.0104C7.92955 13.0479 8.22966 13.1979 8.48289 13.4793C8.61419 13.6012 8.51102 13.6012 8.58605 13.6575C8.58605 13.6762 8.73611 13.8732 8.82052 13.9764L8.81114 13.9857Z" fill="var(--color-primary-100)"></path><path d="M8.84902 14.0337C8.84902 14.0337 8.82081 14.0056 8.8114 13.9869H8.82081C8.82081 13.9869 8.82081 13.9494 8.84902 14.0337Z" fill="var(--color-primary-400)"></path><path d="M13.51 16.387C14.129 16.387 14.6261 15.8993 14.6261 15.2897C14.6261 14.6801 14.129 14.1924 13.51 14.1924C12.891 14.1924 12.3939 14.6801 12.3939 15.2897C12.3939 15.8993 12.891 16.387 13.51 16.387Z" fill="var(--color-primary-100)"></path><path d="M13.51 16.0488C13.9414 16.0488 14.2884 15.7111 14.2884 15.2891C14.2884 14.8671 13.9414 14.5294 13.51 14.5294C13.0786 14.5294 12.7316 14.8671 12.7316 15.2891C12.7316 15.7111 13.0786 16.0488 13.51 16.0488Z" fill="var(--color-primary-300)"></path><path d="M13.5097 15.6267C13.6972 15.6267 13.8565 15.4768 13.8565 15.2893C13.8565 15.1019 13.7066 14.9519 13.5097 14.9519C13.3129 14.9519 13.163 15.1019 13.163 15.2893C13.163 15.4768 13.3129 15.6267 13.5097 15.6267Z" fill="var(--color-primary-100)"></path><path d="M14.7761 11.4261C14.748 11.7356 14.6917 12.1952 14.6261 12.4578C14.5041 13.1049 14.3166 13.7333 14.0727 14.3523C14.0727 14.3523 14.0633 14.371 14.0446 14.4086L13.6694 14.2585V14.221C13.9133 13.6489 14.1009 13.0017 14.2322 12.4015C14.279 12.1577 14.3635 11.67 14.401 11.3323C14.5323 11.3605 14.6448 11.3886 14.7761 11.4355V11.4261Z" fill="var(--color-primary-100)"></path><path d="M19.1091 21.9957H2.48999C2.21801 21.9957 1.99292 21.7706 1.99292 21.4987C1.99292 21.2267 2.21801 21.0016 2.48999 21.0016H19.1091C19.3811 21.0016 19.6061 21.2267 19.6061 21.4987C19.6061 21.7706 19.3811 21.9957 19.1091 21.9957Z" fill="var(--color-primary-400)"></path><path d="M7.25423 17.2956C7.42505 17.2956 7.56352 17.1614 7.56352 16.9957C7.56352 16.8301 7.42505 16.6958 7.25423 16.6958C7.08342 16.6958 6.94495 16.8301 6.94495 16.9957C6.94495 17.1614 7.08342 17.2956 7.25423 17.2956Z" fill="var(--color-primary-100)"></path><path d="M9.30807 16.6679C9.47888 16.6679 9.61735 16.5336 9.61735 16.368C9.61735 16.2023 9.47888 16.0681 9.30807 16.0681C9.13725 16.0681 8.99878 16.2023 8.99878 16.368C8.99878 16.5336 9.13725 16.6679 9.30807 16.6679Z" fill="var(--color-primary-100)"></path><path d="M7.16054 17.194C6.94483 17.194 6.74788 17.119 6.58844 16.9596C5.96945 16.3499 6.13826 14.7274 6.15702 14.5399C6.1664 14.4273 6.26019 14.3523 6.37273 14.371C6.48528 14.3804 6.56031 14.4836 6.55093 14.5867C6.45714 15.3558 6.52279 16.3406 6.8698 16.6782C6.96359 16.772 7.07614 16.8095 7.22619 16.7907C7.32936 16.7814 7.43253 16.8564 7.45128 16.9596C7.47004 17.0627 7.38563 17.1659 7.28247 17.1847C7.24495 17.1847 7.19806 17.1847 7.16054 17.1847V17.194Z" fill="var(--color-primary-100)"></path><path d="M9.27091 16.5843C9.19588 16.5843 9.13023 16.5468 9.09272 16.4717C9.04582 16.3686 9.09272 16.256 9.1865 16.2091C9.32719 16.1435 9.48662 15.909 9.39284 15.5245C9.28967 15.1024 8.7926 14.3334 8.49248 13.9207C8.42683 13.8363 8.44559 13.705 8.53937 13.6487C8.62378 13.5831 8.7457 13.6018 8.82073 13.6956C8.84887 13.7425 9.61793 14.7929 9.78674 15.4401C9.9368 16.0122 9.6742 16.4342 9.37408 16.5749C9.34594 16.5843 9.31781 16.5936 9.28967 16.5936L9.27091 16.5843Z" fill="var(--color-primary-100)"></path><path d="M17.5616 3.17285H17.0552C16.9361 3.17285 16.8395 3.26943 16.8395 3.38856V5.78013C16.8395 5.89927 16.9361 5.99584 17.0552 5.99584H17.5616C17.6808 5.99584 17.7773 5.89927 17.7773 5.78013V3.38856C17.7773 3.26943 17.6808 3.17285 17.5616 3.17285Z" fill="var(--color-primary-100)"></path><path d="M18.7246 4.84264V4.33619C18.7246 4.21706 18.628 4.12048 18.5089 4.12048H16.1173C15.9982 4.12048 15.9016 4.21706 15.9016 4.33619V4.84264C15.9016 4.96178 15.9982 5.05835 16.1173 5.05835H18.5089C18.628 5.05835 18.7246 4.96178 18.7246 4.84264Z" fill="var(--color-primary-100)"></path></g></svg>