<?xml version="1.0" ?><svg height="64" viewBox="0 0 64 64" width="64" xmlns="http://www.w3.org/2000/svg"><title/><g data-name="set-016@doctor-asian-male" id="a195d3ec-73a1-40cb-8878-e0dab29d44c3"><g data-name="doctor-asian-male" id="ef9ab402-ac90-457f-8653-07d77b166159"><g data-name="doctor-asian-male-2" id="eb2e25b5-9535-4f64-a2f0-c0ced4e162b3"><g data-name="Icons" id="e74a0506-3efc-4210-a15c-0a9cdde205b1"><path d="M53.31,44.181,41,40.331H23l-12.31,3.85a6,6,0,0,0-4.16,5L6,53.331c7.89,3.5,17.36,5,26,5s18.11-1.49,26-5l-.52-4.17A6,6,0,0,0,53.31,44.181Z" fill="#e0ebee"/><path d="M58,53.331,57.71,51a6.132,6.132,0,0,0-3.57-2.81l-12.79-3.86H22.65L9.87,48.181A6.162,6.162,0,0,0,6.3,51L6,53.331c7.89,3.5,17.36,5,26,5S50.11,56.841,58,53.331Z" fill="#cedde1"/><path d="M27.94,58.211c-.58-1.07-4.94-9.47-4.94-17.88h0l-3.83,1.2L16,47.911l5,3-2.24,6.24A71.834,71.834,0,0,0,27.94,58.211Z" fill="#eaf2f3"/><polyline fill="none" points="19.17 41.531 16 47.911 21 50.911 18.77 57.151" stroke="#c5d5d8" stroke-linejoin="round"/><path d="M36.06,58.211c.58-1.07,4.94-9.47,4.94-17.88h0l3.83,1.2L48,47.911l-5,3,2.24,6.24A71.834,71.834,0,0,1,36.06,58.211Z" fill="#eaf2f3"/><polyline fill="none" points="44.83 41.531 48 47.911 43 50.911 45.23 57.151" stroke="#c5d5d8" stroke-linejoin="round"/><path d="M36,58.331s5-9,5-18H23c0,9,5,18,5,18" fill="#6d797d" stroke="#343433" stroke-linejoin="round" stroke-width="1.5"/><polygon fill="#e6b790" points="37.97 43.341 31.97 48.331 25.97 43.341 25.97 36.341 37.97 36.341 37.97 43.341"/><path d="M32,58.331c1.21,0,2.44,0,3.67-.1C34.7,55,33,49.331,33,49.331H31l-2.67,8.91C29.56,58.3,30.79,58.331,32,58.331Z" fill="#4994c4" stroke="#343433" stroke-linejoin="round" stroke-width="1.5"/><path d="M35.67,58.241C34.7,55,33,49.331,33,49.331H31l-2.67,8.91" fill="none" stroke="#343433" stroke-miterlimit="10" stroke-width="1.5"/><path d="M32.29,49.331l.21,3a.5.5,0,1,1-1,.06v-.07l.21-3a.291.291,0,0,1,.309-.27h0A.3.3,0,0,1,32.29,49.331Z" fill="#343433"/><polygon fill="#4994c4" points="32 44.331 29.33 47.661 31 49.331 33 49.331 34.58 47.551 32 44.331" stroke="#343433" stroke-linejoin="round" stroke-width="1.5"/><path d="M25,37.331s1.53,3.51,7,7l-4,5c-3-3-5-7-5-9Z" fill="#6d797d" stroke="#343433" stroke-linejoin="round" stroke-width="1.5"/><path d="M39,37.331s-1.53,3.51-7,7l4,5c3-3,5-7,5-9Z" fill="#6d797d" stroke="#343433" stroke-linejoin="round" stroke-width="1.5"/><path d="M41,40.331l12.31,3.85a6,6,0,0,1,4.16,5l.53,4.15c-7.89,3.5-17.36,5-26,5s-18.11-1.49-26-5l.52-4.17a6,6,0,0,1,4.16-5L23,40.331" fill="none" stroke="#343433" stroke-linejoin="round" stroke-width="1.5"/><path d="M18,46.331s5,7,5,10c0,1.17-1,2-3,2" fill="none" stroke="#333" stroke-linejoin="round" stroke-width="1.5"/><path d="M16,58.331c-2,0-3-.83-3-2,0-3,5-10,5-10" fill="none" stroke="#333" stroke-linejoin="round" stroke-width="1.5"/><path d="M45.22,52.331v-11a3.831,3.831,0,0,0-3.65-4H39.22" fill="none" stroke="#333" stroke-linejoin="round" stroke-width="1.5"/><path d="M18,47.331v-6a3.831,3.831,0,0,1,3.65-4H25" fill="none" stroke="#333" stroke-linejoin="round" stroke-width="1.5"/><path d="M48.72,55.831a3.5,3.5,0,1,1-3.5-3.5A3.5,3.5,0,0,1,48.72,55.831Z" fill="#e0ebee"/><circle cx="45.22" cy="55.831" fill="#333" r="1"/><path d="M48.72,55.831a3.5,3.5,0,1,1-3.5-3.5A3.5,3.5,0,0,1,48.72,55.831Z" fill="none" stroke="#333" stroke-linejoin="round" stroke-width="1.5"/><circle cx="16" cy="58.331" fill="#333" r="1"/><circle cx="20" cy="58.331" fill="#333" r="1"/><polyline fill="none" points="25.97 38.901 25.97 36.341 37.97 36.341 37.97 38.971" stroke="#333" stroke-linejoin="round" stroke-width="1.5"/><path d="M42.82,21.761V19.6c0-5.87-2-11.9-10.82-11.9s-10.82,6-10.82,11.9v2.16c-.09,0-3.25,0-2.16,5.41a4.22,4.22,0,0,0,3.25,3.25c0,3.84,1.08,4.33,4.74,8.09,1.41,1.8,3.13,1.64,5,1.64s3.59.15,5-1.64c3.66-3.77,4.74-4.25,4.74-8.09A4.22,4.22,0,0,0,45,27.171C46.07,21.761,42.91,21.731,42.82,21.761Z" fill="#efc8a5"/><path d="M21.18,21.761v-1.08a3.612,3.612,0,0,1,1.08,2.16v3.25a3.64,3.64,0,0,0,1.49,3.25,5.129,5.129,0,0,1,1.75,4.33v2.95l-2.16-1.71a3.563,3.563,0,0,1-1.08-2.33v-2.16A4.059,4.059,0,0,1,19,27.171C18,20.291,21.09,21.731,21.18,21.761Z" fill="#e8be9c"/><path d="M42.82,21.761V19.6c0-5.87-2-11.9-10.82-11.9a17.808,17.808,0,0,0-3.25.3v10.52a2.339,2.339,0,0,1-2.16,2.16s3.25,0,4.33,2.16H32v3.25a1.591,1.591,0,0,0,.64,1.27,1.08,1.08,0,0,1-.63,2h0c-.8,0-1.08-.54-2.16-.54-.64,0-.54.82-.56.81a2.4,2.4,0,0,1,1.08.28A3.4,3.4,0,0,0,32,30.3h0V35a1,1,0,0,0,.74.94c.62.14,1.4.43,1.42,1,.13,3.63-4.87,1.15-5.36,3a9.528,9.528,0,0,0,3.19.29c1.87,0,3.59.16,5-1.63,3.68-3.78,4.76-4.25,4.76-8.09A4.229,4.229,0,0,0,45,27.181C46.07,21.761,42.91,21.721,42.82,21.761Z" fill="#e6b790"/><path d="M42.82,19.6c0-5.87-2-11.9-10.82-11.9s-10.82,6-10.82,11.9v2.16a.808.808,0,0,0-.31,0l1.4,1.53V25c1.16-1.16.13-1.69,2.16-3.81,0-.49.17-3,.16-2.88,0-.11-.87-2.52,1.23-2.4,0,0,7.71,3.58,9.82,4.38a13.251,13.251,0,0,0,5,.52c.08,1,.14,2,.22,2.93a1.378,1.378,0,0,0,.83,1.16,6.065,6.065,0,0,1,1.08-3.54Z" fill="#e6b790"/><path d="M42.82,21.371V19.6c0-5.87-2-11.9-10.82-11.9a14.3,14.3,0,0,0-3.25.3v9.24c2.41,1.08,5.61,2.55,6.86,3a13.251,13.251,0,0,0,5,.52c.08,1,.14,2,.22,2.93a1.359,1.359,0,0,0,.85,1.16A6.152,6.152,0,0,1,42.82,21.371Z" fill="#ddad8a"/><path d="M42.82,21.761v-1.08a3.612,3.612,0,0,0-1.08,2.16v3.25a3.64,3.64,0,0,1-1.49,3.25,5.129,5.129,0,0,0-1.75,4.33v2.95l2.16-1.71a3.563,3.563,0,0,0,1.08-2.33v-2.16A4.059,4.059,0,0,0,45,27.171C46,20.291,42.91,21.731,42.82,21.761Z" fill="#ddad8a"/><path d="M42.82,21.761V19.6c0-5.87-2-11.9-10.82-11.9s-10.82,6-10.82,11.9v2.16c-.09,0-3.25,0-2.16,5.41a4.22,4.22,0,0,0,3.25,3.25c0,3.84,1.08,4.33,4.74,8.09,1.41,1.8,3.13,1.64,5,1.64s3.59.15,5-1.64c3.66-3.77,4.74-4.25,4.74-8.09A4.22,4.22,0,0,0,45,27.171C46.07,21.761,42.91,21.731,42.82,21.761Z" fill="none" stroke="#333" stroke-linejoin="round" stroke-width="1.623"/><path d="M24.43,9.861c-7.18,2.66-3.89,10.82-3.25,11.9A5.856,5.856,0,0,1,22.26,25v-1.71a3.694,3.694,0,0,1,1.08-2.61v-2.16a2.81,2.81,0,0,1,1.23-3.77,2.722,2.722,0,0,1,1.11-.3,4.092,4.092,0,0,1,2.16.51l6.8,3.48a11.851,11.851,0,0,0,4.93,1.17h2.16V25c-.17-3.8,2.16-2.94,2.16-7.93C43.9,4.811,27.46,2.861,24.43,9.861Z" fill="#444"/><path d="M34.28,16.511a10.293,10.293,0,0,1,6.56-5.33c-3.34,0-6.19,1.73-8.84,4.08a10,10,0,0,1,6-4.88c-2.39,0-5.45,1.28-8.14,3.8a9.4,9.4,0,0,1,7-4.91c-3.38-.36-5,.26-8.85,3.44.79-2.15,3.05-3.58,5.46-4.35-3.57-.2-6.74,1-7.92,3.66-2.92,1.08-4.58,3.12-4.33,6.49v3.3A4.913,4.913,0,0,1,22.26,25c0-2-.14-3.11,1.08-4.33v-2.16c-1.22-2.39,1.34-5.31,4.5-3.56,7.94,4.35,9.23,4.75,13.9,4.64V25a4.792,4.792,0,0,1,1.08-3.25c1-.95,1.08-2.16,1.08-4.69v-.74a9.091,9.091,0,0,0-.7-3.49C39.94,12.561,36.88,14,34.28,16.511Z" fill="#333"/><path d="M30.55,24.1a2.421,2.421,0,0,1,2.91,0" fill="none" stroke="#333" stroke-miterlimit="10" stroke-width="1.023"/><path d="M24.24,22.581h4.83a1.4,1.4,0,0,1,1,.41,1.52,1.52,0,0,1,.2,1.92l-1.12,1.68a1.918,1.918,0,0,1-1.6.86H25.43a2.719,2.719,0,0,1-2.72-2.69v-.64a1.5,1.5,0,0,1,1.5-1.5h0Z" fill="#dbd4d7"/><path d="M39.75,22.581H35a1.4,1.4,0,0,0-1,.41,1.52,1.52,0,0,0-.2,1.92l1.13,1.69a1.936,1.936,0,0,0,1.6.85h2.11a2.72,2.72,0,0,0,2.72-2.72h0v-.64A1.49,1.49,0,0,0,39.872,22.6H39.8Z" fill="#dbd4d7"/><path d="M24.24,22.581h4.83a1.4,1.4,0,0,1,1,.41,1.52,1.52,0,0,1,.2,1.92l-1.12,1.68a1.918,1.918,0,0,1-1.6.86H25.43a2.719,2.719,0,0,1-2.72-2.69v-.64a1.5,1.5,0,0,1,1.5-1.5h0Z" fill="none" stroke="#333" stroke-linejoin="round" stroke-width="1.023"/><path d="M39.75,22.581H35a1.4,1.4,0,0,0-1,.41,1.52,1.52,0,0,0-.2,1.92l1.13,1.69a1.936,1.936,0,0,0,1.6.85h2.11a2.72,2.72,0,0,0,2.72-2.72h0v-.64A1.49,1.49,0,0,0,39.872,22.6H39.8Z" fill="none" stroke="#333" stroke-linejoin="round" stroke-width="1.023"/><ellipse cx="26.94" cy="24.671" fill="#6c7881" rx="0.77" ry="0.53"/><ellipse cx="37.07" cy="24.671" fill="#6c7881" rx="0.77" ry="0.53"/><path d="M29.55,29.611a2.2,2.2,0,0,1,1.18.35h0a2.249,2.249,0,0,0,2.37,0h0a2.233,2.233,0,0,1,1.18-.35" fill="none" stroke="#c6916d" stroke-linecap="round" stroke-miterlimit="10" stroke-width="0.75"/><path d="M33.47,32.481a3.153,3.153,0,0,0-1.28.14.681.681,0,0,1-.45,0,3.021,3.021,0,0,0-1.28-.14c-.72.11-.8.56-2.26,1.36l1.29.79a2.394,2.394,0,0,0,1.37.44h2.23a2.356,2.356,0,0,0,1.37-.44l1.33-.76C34.34,33.071,34.19,32.581,33.47,32.481Z" fill="#ddab85"/><path d="M35.8,33.871c-1.1,0-1.36-.42-2.42-.42a7.484,7.484,0,0,0-1.39.18,8.46,8.46,0,0,0-1.4-.18c-1,0-1.24.39-2.39.39" fill="none" stroke="#c6916d" stroke-linecap="round" stroke-miterlimit="10" stroke-width="0.75"/><path d="M41.37,25a6,6,0,0,1,.26-2.37,17.139,17.139,0,0,1,1.07-2,7.99,7.99,0,0,0,.6-4.1,10.643,10.643,0,0,0-1-4.06,9.8,9.8,0,0,0-2.58-3.24,12.2,12.2,0,0,0-7.8-2.6,9.653,9.653,0,0,0-4,.87,5.473,5.473,0,0,0-2.78,2.64h0a.758.758,0,0,1-.42.39,6.585,6.585,0,0,0-3.16,2.27,6.284,6.284,0,0,0-1.06,3.8,12.391,12.391,0,0,0,.79,4.11,6.539,6.539,0,0,0,.42.94q.27.5.51,1A5,5,0,0,1,22.64,25a.36.36,0,0,1-.377.342l-.023,0A.359.359,0,0,1,21.9,25a4.2,4.2,0,0,0-.5-1.93c-.15-.31-.33-.61-.52-.92a6.733,6.733,0,0,1-.53-1,13.258,13.258,0,0,1-1-4.45,7.567,7.567,0,0,1,1.11-4.57A7.856,7.856,0,0,1,24.22,9.2l-.43.4A7.107,7.107,0,0,1,27.21,6a11.273,11.273,0,0,1,4.67-1,13.313,13.313,0,0,1,8.76,3.12,10.925,10.925,0,0,1,2.85,3.78,12.01,12.01,0,0,1,1,4.58,8.65,8.65,0,0,1-.91,4.6A17.443,17.443,0,0,0,42.46,23a5.225,5.225,0,0,0-.32,2h0a.37.37,0,0,1-.37.37.338.338,0,0,1-.4-.272A.357.357,0,0,1,41.37,25Z" fill="#333"/><path d="M21.89,25a18.742,18.742,0,0,1,0-2.37A3.823,3.823,0,0,1,23,20.311l-.16.39-.06-2.16.07.28a3.673,3.673,0,0,1-.41-1.67,3.477,3.477,0,0,1,.48-1.67,3.575,3.575,0,0,1,2.91-1.75,4.208,4.208,0,0,1,1.69.25c.26.09.51.22.76.33l.63.33L31.37,16a43,43,0,0,0,5,2.38,15.334,15.334,0,0,0,5.37.75h0a.55.55,0,0,1,.55.55v.01h0c0,1.8-.11,3.61-.2,5.41a.37.37,0,1,1-.74,0c-.09-1.8-.15-3.61-.2-5.41l.58.57a16.188,16.188,0,0,1-5.85-.48,31.287,31.287,0,0,1-5.32-2.32c-.84-.45-1.67-.9-2.5-1.38l-.62-.35-.44-.3a3.013,3.013,0,0,0-1.09-.21,2.161,2.161,0,0,0-1.8,1,2.268,2.268,0,0,0-.35,1,2.516,2.516,0,0,0,.2,1.07v.07a.53.53,0,0,1,0,.21l-.06,2.16h0a.5.5,0,0,1-.16.35,2.911,2.911,0,0,0-1,1.7,17.667,17.667,0,0,0-.15,2.24.38.38,0,0,1-.38.36A.458.458,0,0,1,21.89,25Z" fill="#333"/></g></g></g></g><g data-name="set-016@surgeon-white-male" id="aaa0f679-a654-4c67-bd1c-093f3fd8a082"><path d="M37.7,28.084a5.45,5.45,0,0,1,1.638,8.379c-.853,1-6.729,9.732-14.949-.012a5.452,5.452,0,0,1,1.653-8.361l4.526-2.345a2.841,2.841,0,0,1,2.618,0Z" fill="#fff"/><path d="M23.936,30.041a22.883,22.883,0,0,1-3.745-9.294" fill="#fff" stroke="#333" stroke-linecap="round" stroke-linejoin="round" stroke-width="1.5"/><path d="M40.064,30.041a22.883,22.883,0,0,0,3.745-9.294" fill="#fff" stroke="#333" stroke-linecap="round" stroke-linejoin="round" stroke-width="1.5"/><line fill="#fff" stroke="#333" stroke-linecap="round" stroke-linejoin="round" stroke-width="1.5" x1="23.102" x2="21.46" y1="32.807" y2="31.902"/><line fill="#fff" stroke="#333" stroke-linecap="round" stroke-linejoin="round" stroke-width="1.5" x1="40.898" x2="42.54" y1="32.807" y2="31.902"/><path d="M37.7,28.084l-4.514-2.339a2.841,2.841,0,0,0-2.618,0L26.045,28.09a5.406,5.406,0,0,0-2.773,3.523,5.439,5.439,0,0,0,1.12,2.173c8.22,9.745,14.1,1.014,14.949.013a5.443,5.443,0,0,0,1.137-2.189A5.406,5.406,0,0,0,37.7,28.084Z" fill="#fff"/><path d="M37.7,28.084l-4.514-2.339a2.84,2.84,0,0,0-1.179-.3l-.02-.008v7.984c.035,2.059,2.2,1.609.865,4.11-2.047,3.841-7.082-2.89-7.082.41-.016.116,2.957,2.091,2.947,2.2,5.905,3.072,9.927-2.861,10.621-3.676A5.45,5.45,0,0,0,37.7,28.084Z" fill="#eee"/><path d="M23.3,31.514a19,19,0,0,0,8.714,2.273,17.259,17.259,0,0,0,8.444-2.273" fill="none" stroke="#ddd" stroke-miterlimit="10"/><path d="M23.3,33.74a19,19,0,0,0,8.714,2.273,17.259,17.259,0,0,0,8.444-2.273" fill="none" stroke="#ddd" stroke-miterlimit="10"/><path d="M37.7,28.084a5.45,5.45,0,0,1,1.638,8.379c-.853,1-6.729,9.732-14.949-.012a5.452,5.452,0,0,1,1.653-8.361l4.526-2.345a2.841,2.841,0,0,1,2.618,0Z" fill="none" stroke="#333" stroke-linejoin="round" stroke-width="1.5"/></g></svg>