<svg width="56" height="56" viewBox="0 0 56 56" fill="none" xmlns="http://www.w3.org/2000/svg">
<mask id="mask0_2167_3266" style="mask-type:luminance" maskUnits="userSpaceOnUse" x="-1" y="0" width="57" height="56">
<path d="M55.7188 0H-0.28125V56H55.7188V0Z" fill="white"/>
</mask>
<g mask="url(#mask0_2167_3266)">
<path d="M43.4691 19.2102C42.4891 19.5952 41.7891 20.5052 41.7891 21.5552V33.4552C40.3891 34.2952 39.4791 35.8002 39.4791 37.4802C39.4791 38.7052 40.0041 39.8602 40.8091 40.7002V51.0952H21.9091V42.5902L15.5041 43.3252C14.9791 40.3502 16.0991 37.2352 18.9691 35.2402C21.0341 33.8052 23.5541 33.3502 25.9691 32.5452C28.3491 31.7402 30.7991 30.4802 31.7791 28.1702C32.8991 25.5452 31.7791 22.3952 32.7941 19.6652C33.1091 18.7202 33.7041 17.8802 34.1941 16.9702C35.3141 14.9402 35.8391 12.5952 35.7341 10.2852C39.3041 12.2102 42.0691 15.3952 43.4691 19.2102Z" fill="#0E8943"/>
<path d="M26.0384 16.585C24.9534 17.81 23.2734 18.37 21.6984 18.86C20.3684 19.28 18.9334 19.7 17.5684 19.315C16.6934 19.07 15.9584 18.545 15.1184 18.125C14.3834 17.74 13.5784 17.53 12.7734 17.39C15.3284 12.315 20.4734 8.74504 26.4584 8.29004C26.7734 9.16504 27.0534 10.04 27.1934 10.95C27.5084 12.91 27.3334 15.08 26.0384 16.62V16.585Z" fill="#0E8943"/>
<path d="M41.7875 28.4148V33.4548C40.3875 34.2948 39.4775 35.7998 39.4775 37.4798C39.4775 38.7048 40.0025 39.8598 40.8075 40.6998V51.0948H31.5325C30.6575 49.0298 29.8875 46.9298 29.5025 44.7248C29.2225 43.0798 29.1175 41.3648 29.5725 39.7898C30.0975 38.1798 31.2175 36.7448 32.8275 36.2548C33.8425 35.8698 35.1025 35.9398 35.8725 35.1698C36.4675 34.5398 36.5725 33.6648 36.7825 32.8248C37.3775 30.4798 39.3725 28.3098 41.7875 28.4148Z" fill="#0E8943"/>
<path d="M41.8954 17.215C42.0004 17.425 42.2104 17.53 42.4204 17.53C42.5254 17.53 42.6304 17.53 42.7354 17.46C43.0154 17.285 43.1204 16.935 42.9804 16.62C42.6654 16.025 42.2804 15.43 41.8604 14.87C41.7554 14.73 41.6154 14.66 41.4754 14.625C41.3004 14.625 41.1604 14.625 41.0204 14.73C40.7404 14.94 40.7054 15.29 40.8804 15.57C41.2654 16.095 41.6154 16.655 41.8954 17.18V17.215Z" fill="#0E8943"/>
<path d="M36.4687 11.4402C36.4687 11.4402 36.7837 11.5452 36.9237 11.5452C37.0987 11.5452 37.2387 11.4052 37.3087 11.2652C37.4137 11.1252 37.4137 10.9502 37.3787 10.8102C37.3437 10.6352 37.2387 10.5302 37.0987 10.4252C36.7487 10.1802 36.3637 9.97016 35.9787 9.76016C33.4237 8.39516 30.5537 7.66016 27.6837 7.66016C27.2637 7.66016 26.8087 7.66016 26.3887 7.69516C20.4387 8.15016 15.0137 11.6852 12.2837 16.9352C12.2487 16.9702 12.1787 17.0402 12.1437 17.1102C10.9187 19.5252 10.2537 22.2902 10.2537 25.0202V25.3702L5.91366 32.5102C5.70366 32.8602 5.70367 33.3152 5.84367 33.7002C5.98367 34.0502 6.29867 34.2952 6.64867 34.3652L11.2337 35.2752L11.8287 41.4702C11.8987 42.2402 12.2837 42.9402 12.8787 43.3952C13.4737 43.8502 14.2437 44.0602 14.9787 43.9552L21.2787 43.2202V51.0602C21.2787 51.4102 21.5587 51.6552 21.8737 51.6552C22.1887 51.6552 22.4687 51.3752 22.4687 51.0602V42.5552C22.4687 42.3802 22.3987 42.2052 22.2587 42.1002C22.1537 41.9952 22.0137 41.9602 21.8387 41.9602C21.8387 41.9602 21.8037 41.9602 21.7687 41.9602L15.3637 42.6952L14.7687 42.7652C14.3487 42.8352 13.9287 42.7302 13.6137 42.4502C13.2987 42.2052 13.0887 41.8202 13.0187 41.3652L12.3887 34.7152C12.3887 34.4352 12.1787 34.2252 11.8987 34.1902L6.92867 33.2102C6.92867 33.2102 6.92867 33.1752 6.92867 33.1402L11.3387 25.8602C11.3387 25.8602 11.4437 25.6502 11.4437 25.5452V25.0202C11.4437 22.5002 12.0387 20.0152 13.1237 17.8102C13.1937 17.7402 13.2287 17.7052 13.2637 17.6352C15.7837 12.6652 20.8237 9.30516 26.4587 8.88516C26.8787 8.85016 27.2637 8.81516 27.6487 8.85016C30.3437 8.85016 32.9687 9.51516 35.3837 10.8102C35.7337 10.9852 36.0837 11.1952 36.4337 11.4402H36.4687Z" fill="#0E8943"/>
<path d="M38.5703 14.835C38.5703 15.185 38.8503 15.43 39.1653 15.43C39.4803 15.43 39.7603 15.15 39.7603 14.835C39.7603 14.59 39.8303 14.52 40.0053 14.31C40.2153 14.065 40.5653 13.68 40.5653 12.98C40.5653 12.28 40.2503 11.895 40.0053 11.65C39.8303 11.44 39.7603 11.37 39.7603 11.125C39.7603 10.88 39.8303 10.81 40.0053 10.6C40.2153 10.355 40.5653 9.97 40.5653 9.27C40.5653 8.57 40.2503 8.185 40.0053 7.94C39.8303 7.73 39.7603 7.66 39.7603 7.415C39.7603 7.17 39.8303 7.1 40.0053 6.89C40.2503 6.61 40.5653 6.26 40.5653 5.595C40.5653 5.245 40.2853 5 39.9703 5C39.6553 5 39.3753 5.28 39.3753 5.595C39.3753 5.84 39.3053 5.91 39.1303 6.12C38.8853 6.4 38.5703 6.75 38.5703 7.415C38.5703 8.08 38.8853 8.465 39.1303 8.745C39.3053 8.955 39.3753 9.025 39.3753 9.27C39.3753 9.515 39.3053 9.585 39.1303 9.795C38.9203 10.04 38.5703 10.425 38.5703 11.125C38.5703 11.825 38.8853 12.21 39.1303 12.455C39.3053 12.665 39.3753 12.735 39.3753 12.98C39.3753 13.225 39.3053 13.295 39.1303 13.505C38.9203 13.75 38.5703 14.135 38.5703 14.835Z" fill="#0E8943"/>
<path d="M42.5586 14.835C42.5586 15.185 42.8386 15.43 43.1536 15.43C43.4686 15.43 43.7486 15.15 43.7486 14.835C43.7486 14.59 43.8186 14.52 43.9936 14.31C44.2036 14.065 44.5536 13.68 44.5536 12.98C44.5536 12.28 44.2386 11.895 43.9936 11.65C43.8186 11.44 43.7486 11.37 43.7486 11.125C43.7486 10.88 43.8186 10.81 43.9936 10.6C44.2036 10.355 44.5536 9.97 44.5536 9.27C44.5536 8.57 44.2386 8.185 43.9936 7.94C43.8186 7.73 43.7486 7.66 43.7486 7.415C43.7486 7.17 43.8186 7.1 43.9936 6.89C44.2386 6.61 44.5536 6.26 44.5536 5.595C44.5536 5.245 44.2736 5 43.9586 5C43.6436 5 43.3636 5.28 43.3636 5.595C43.3636 5.84 43.2936 5.91 43.1186 6.12C42.8736 6.4 42.5586 6.75 42.5586 7.415C42.5586 8.08 42.8736 8.5 43.1186 8.745C43.2936 8.955 43.3636 9.025 43.3636 9.27C43.3636 9.515 43.2936 9.585 43.1186 9.795C42.9086 10.04 42.5586 10.425 42.5586 11.125C42.5586 11.825 42.8736 12.21 43.1186 12.455C43.2936 12.665 43.3636 12.735 43.3636 12.98C43.3636 13.225 43.2936 13.295 43.1186 13.505C42.9086 13.75 42.5586 14.135 42.5586 14.835Z" fill="#0E8943"/>
<path d="M46.582 14.835C46.582 15.185 46.862 15.43 47.177 15.43C47.492 15.43 47.772 15.15 47.772 14.835C47.772 14.59 47.842 14.52 48.017 14.31C48.227 14.065 48.577 13.68 48.577 12.98C48.577 12.28 48.262 11.895 48.017 11.65C47.842 11.44 47.772 11.37 47.772 11.125C47.772 10.88 47.842 10.81 48.017 10.6C48.227 10.355 48.577 9.97 48.577 9.27C48.577 8.57 48.262 8.185 48.017 7.94C47.842 7.73 47.772 7.66 47.772 7.415C47.772 7.17 47.842 7.1 48.052 6.89C48.262 6.61 48.577 6.26 48.577 5.595C48.577 5.245 48.297 5 47.982 5C47.667 5 47.387 5.28 47.387 5.595C47.387 5.84 47.317 5.91 47.107 6.12C46.897 6.4 46.582 6.75 46.582 7.415C46.582 8.08 46.897 8.5 47.142 8.745C47.317 8.955 47.387 9.025 47.387 9.27C47.387 9.515 47.317 9.585 47.142 9.795C46.932 10.04 46.582 10.425 46.582 11.125C46.582 11.825 46.897 12.21 47.142 12.455C47.317 12.665 47.387 12.735 47.387 12.98C47.387 13.225 47.317 13.295 47.142 13.505C46.932 13.75 46.582 14.135 46.582 14.835Z" fill="#0E8943"/>
<path d="M40.7747 51.655C40.4597 51.655 40.1797 51.41 40.1797 51.06V44.2C40.1797 43.885 40.4247 43.605 40.7747 43.605C41.1247 43.605 41.3697 43.85 41.3697 44.2V51.06C41.3697 51.375 41.1247 51.655 40.7747 51.655Z" fill="#0E8943"/>
<path d="M44.4505 35.4847C44.1355 35.4847 43.8555 35.2397 43.8555 34.8897V22.7097C43.8555 22.3947 44.1005 22.1147 44.4505 22.1147C44.8005 22.1147 45.0455 22.3597 45.0455 22.7097V34.8897C45.0455 35.2047 44.8005 35.4847 44.4505 35.4847Z" fill="#0E8943"/>
<path d="M44.4494 42.4497C41.5794 42.4497 39.2344 40.1397 39.2344 37.2697C39.2344 35.5897 40.0394 34.0497 41.3694 33.0347V21.7647C41.3694 20.0847 42.7344 18.7197 44.4144 18.7197C46.0944 18.7197 47.4594 20.0847 47.4594 21.7647V33.0347C48.8244 34.0147 49.5944 35.5897 49.5944 37.2697C49.5944 40.1397 47.2844 42.4497 44.4144 42.4497H44.4494ZM44.4494 19.9097C43.3994 19.9097 42.5594 20.7497 42.5594 21.7997V33.3497C42.5594 33.5597 42.4544 33.7347 42.2794 33.8397C41.0894 34.6097 40.3894 35.8697 40.3894 37.2697C40.3894 39.4747 42.2094 41.2947 44.4144 41.2947C46.6194 41.2947 48.4394 39.5097 48.4394 37.2697C48.4394 35.8697 47.7394 34.6097 46.5494 33.8397C46.3744 33.7347 46.2694 33.5597 46.2694 33.3497V21.7997C46.2694 20.7497 45.4294 19.9097 44.4144 19.9097H44.4494Z" fill="#0E8943"/>
<path d="M44.4486 40.0349C45.9757 40.0349 47.2136 38.7969 47.2136 37.2699C47.2136 35.7428 45.9757 34.5049 44.4486 34.5049C42.9215 34.5049 41.6836 35.7428 41.6836 37.2699C41.6836 38.7969 42.9215 40.0349 44.4486 40.0349Z" fill="#0E8943"/>
</g>
</svg>
