<svg width="56" height="57" viewBox="0 0 56 57" fill="none" xmlns="http://www.w3.org/2000/svg">
<mask id="mask0_2167_3532" style="mask-type:luminance" maskUnits="userSpaceOnUse" x="0" y="0" width="56" height="57">
<path d="M56 0.666992H0V56.667H56V0.666992Z" fill="white"/>
</mask>
<g mask="url(#mask0_2167_3532)">
<mask id="mask1_2167_3532" style="mask-type:luminance" maskUnits="userSpaceOnUse" x="0" y="1" width="56" height="57">
<path d="M56 1.00049H0V57.0005H56V1.00049Z" fill="white"/>
</mask>
<g mask="url(#mask1_2167_3532)">
<path d="M43.9934 45.9056C43.8884 47.9006 42.2434 49.4406 40.2134 49.4406C38.6734 49.4406 37.3784 48.5656 36.7834 47.2706C36.5384 46.7806 36.3984 46.1856 36.3984 45.6256C36.3984 44.3306 37.8334 41.1456 38.9884 38.9756C39.0234 39.0106 39.0584 39.0106 39.0584 39.0456C39.2334 39.3956 39.3034 39.8156 39.3034 40.2006C39.3384 40.8656 39.3734 41.5306 39.2334 42.1956C39.1634 42.5456 39.0934 43.2106 39.0934 43.5956C39.0584 44.4356 39.6534 44.8556 40.4234 45.2056C41.1934 45.5906 42.0334 45.6606 42.8734 45.7306C43.2584 45.7656 43.6434 45.8356 44.0284 45.8706L43.9934 45.9056Z" fill="#0E8943"/>
<path d="M28.6983 22.3153C28.3483 22.3503 27.9983 22.3503 27.7183 22.3503C27.2633 22.3503 26.8083 22.3153 26.3533 22.2103C26.2833 22.2103 26.2133 22.1753 26.1083 22.1753C25.6883 22.0703 25.3383 21.9303 24.9533 21.7903C22.0833 20.5653 20.2633 17.5903 17.6733 15.7353C17.3583 15.4553 17.2533 15.6303 16.9033 15.4553C16.9383 16.4003 17.0433 16.6803 17.1833 17.2753C17.3233 17.8353 17.7433 18.6753 17.9883 19.1653L15.0483 19.0953C14.7683 18.2553 13.8583 17.5203 13.0883 16.8553C12.1433 16.0503 11.4083 15.8403 10.4283 15.8403C10.3233 15.8403 9.72828 15.7703 9.62328 15.8403C9.34328 15.3153 9.02829 14.5803 8.95829 14.1953C8.64329 14.1953 8.95829 14.1953 8.64329 14.3003C8.15329 14.4053 7.69829 14.5803 7.20829 14.7203C6.99829 14.7903 6.79995 14.872 6.61328 14.9653C6.78828 15.9453 7.34828 16.7503 8.04828 17.6953L8.15329 18.3953C8.15329 19.5853 8.25828 20.1453 9.41328 21.1253C10.2183 21.8603 11.1983 22.2803 12.1783 22.3503H12.4583C13.3683 22.3503 13.9633 22.0353 14.4533 21.4403C14.8733 20.9503 15.1533 20.3903 15.1533 19.6903H17.9533C18.3733 20.2503 19.1783 20.9853 19.7033 21.7203L20.2283 22.4203C20.9633 23.4353 21.5233 24.6603 21.9433 26.1653C21.9783 26.2003 21.9783 26.2703 22.0133 26.3403C22.1883 26.9353 22.3283 27.5653 22.3983 28.0903L22.4683 28.3353C22.5033 28.5103 22.5383 28.7203 22.6083 28.8603V36.5953C22.6433 37.4353 22.8533 38.2403 23.2383 39.0103L23.5883 39.7103C24.0433 40.6553 24.3233 41.7053 24.3233 42.7553V46.5353C24.3233 48.1103 25.2333 49.4053 26.8083 49.4753C26.8783 49.5103 27.0533 49.4753 27.1233 49.4753C27.8933 49.4753 28.2783 49.3703 28.8033 48.8103C29.3633 48.2503 29.6783 47.5153 29.6783 46.7103V42.7553C29.6783 41.6703 29.6433 40.6903 30.1333 39.7453L30.4833 39.0453C30.8333 38.2753 31.0433 37.4703 31.0433 36.6303V29.0353C31.0433 29.0353 31.4983 28.4053 31.5333 28.1953C31.8833 26.2003 32.2683 24.6953 33.0733 23.3303C33.2133 22.9803 33.3533 22.8403 33.5633 22.5603L33.8433 22.1753C33.4933 22.1053 33.4233 22.1053 33.0383 22.1053C31.6383 22.0003 30.1683 22.2453 28.7333 22.3503L28.6983 22.3153Z" fill="#0E8943"/>
<path d="M27.4756 42.2305C27.4756 42.2305 27.2306 42.5104 27.0906 42.6154C26.9506 42.7204 26.7756 42.8604 26.5656 42.9304C26.1456 43.2104 25.6556 43.4555 25.1306 43.5604C24.8506 43.6654 24.5006 43.7355 24.2206 43.7355V42.4054C24.2206 41.3904 23.9756 40.3755 23.5206 39.4655L23.2056 38.8004C22.8556 38.0654 22.6456 37.2954 22.6456 36.5254V29.2105C22.6456 29.2105 22.6106 29.2104 22.6456 29.1754C22.5756 29.0354 22.5406 28.8604 22.5056 28.6504L22.4356 28.4404C22.3656 27.9154 22.2606 27.3554 22.0856 26.7604C22.0506 26.6904 22.0506 26.6204 22.0156 26.5854C22.3306 26.5854 22.7156 26.6205 23.0306 26.7255C23.9056 26.9355 24.6756 27.3905 25.2006 28.0905C25.5156 28.5105 25.7606 29.0004 25.8656 29.5254C25.9706 29.8404 26.0406 30.1904 26.0756 30.5054C26.2506 31.7654 26.1806 33.1304 26.5656 34.3204C26.6356 34.5654 26.7406 34.8454 26.8456 35.0554C27.0206 35.4054 27.2306 35.7554 27.4756 36.0704C27.8256 36.5954 28.2106 37.0505 28.4556 37.6105C29.1556 39.1155 28.6306 41.0055 27.4756 42.2305Z" fill="#0E8943"/>
<path d="M45.7094 17.8353C45.7794 18.4303 45.6044 19.1303 45.2194 19.7603C44.8344 19.3753 44.5194 18.9203 44.4494 18.3603C44.3444 17.6253 44.5194 16.9253 44.4494 16.1903V16.0853H44.4144C44.4144 15.9103 44.3794 15.7003 44.3444 15.5253C44.7644 14.6853 44.9044 13.7753 44.7994 13.0403C44.6944 11.4653 42.7344 11.0453 42.7344 11.0453C41.4394 10.8003 39.7594 11.3253 38.3944 12.4453C38.0794 12.6903 37.8694 12.9353 37.6244 13.2153C37.2044 13.1803 36.7494 13.0403 36.3644 12.7953C35.6294 12.3753 35.1744 11.6403 34.8594 10.8353C34.9644 10.9053 35.1394 10.9753 35.2444 11.0803C35.5944 11.3253 36.0494 11.2553 36.3294 10.9753C36.4694 10.8703 36.6444 10.6953 36.7844 10.5903C39.8994 7.96533 44.0994 7.82532 46.1644 10.2753C47.8444 12.2703 47.5644 15.3853 45.7094 17.8703V17.8353Z" fill="#0E8943"/>
<path d="M31.0442 32.6753C30.7292 32.6753 30.4492 32.9203 30.4492 33.2703V34.0403C30.4492 34.3553 30.6942 34.6353 31.0442 34.6353C31.3942 34.6353 31.6392 34.3903 31.6392 34.0403V33.2703C31.6392 32.9553 31.3942 32.6753 31.0442 32.6753Z" fill="#0E8943"/>
<path d="M38.5341 20.0053C38.5341 20.6703 38.7091 21.3003 39.1291 21.7903C39.5841 22.3503 40.2841 22.7003 41.0891 22.7703C41.1941 22.7703 41.2991 22.7703 41.4041 22.7703C42.4541 22.7703 43.5741 22.3503 44.4841 21.5453C45.3591 20.8103 45.9541 19.8653 46.1641 18.8853C46.2341 18.6053 46.2341 18.3603 46.2691 18.0803C48.2291 15.3153 48.3691 12.0603 46.5841 9.92534C44.3091 7.23034 39.7591 7.33534 36.3991 10.1703C36.3991 10.1703 36.0841 10.4503 35.9441 10.5903C35.8391 10.6953 35.6641 10.6953 35.5591 10.6253C31.4641 8.14033 27.2991 7.40534 23.2391 8.42034C23.0991 8.45534 22.9591 8.56034 22.8891 8.70034C22.8191 8.84034 22.7841 8.98033 22.8191 9.15533C22.8891 9.47033 23.2041 9.64534 23.5191 9.57534C27.2641 8.63034 31.1141 9.29533 34.9291 11.6403C35.4891 11.9903 36.2241 11.9203 36.7141 11.4303C36.8541 11.2903 36.9941 11.1853 37.1341 11.0453C40.0041 8.63034 43.8191 8.45533 45.6741 10.6603C46.9341 12.1653 46.9341 14.4753 45.8141 16.5753C45.7441 16.4703 45.7091 16.3653 45.6391 16.2953C45.4291 16.0153 45.1141 15.8403 44.8341 15.6653C45.2891 14.7203 45.4641 13.7753 45.3241 12.9353C45.3241 12.7953 45.2191 12.6203 45.0791 12.5503C44.9391 12.4803 44.7991 12.4103 44.6591 12.4453C44.5191 12.4453 44.3791 12.5503 44.2741 12.6903C44.1691 12.8303 44.1341 12.9704 44.1691 13.1104C44.2741 13.7754 44.0991 14.5803 43.6791 15.3503C42.5941 15.2453 41.3341 15.6653 40.2841 16.5403C39.5141 17.2053 38.9891 18.0103 38.7091 18.8153H36.4691C36.9591 17.7653 37.2391 16.6103 37.2741 14.9303C37.2741 14.7553 37.3441 14.5803 37.4141 14.4053C37.7291 13.8453 38.1841 13.3553 38.7091 12.9003C39.8641 11.9203 41.4041 11.3953 42.5941 11.6053C42.7341 11.6053 42.9091 11.6053 43.0141 11.5003C43.1541 11.3953 43.2241 11.2903 43.2591 11.1153C43.2591 10.9753 43.2591 10.8003 43.1541 10.6953C43.0491 10.5553 42.9441 10.4853 42.7691 10.4503C41.2291 10.1703 39.4091 10.8003 37.9391 12.0253C37.3441 12.5503 36.7841 13.1453 36.3991 13.8103C36.1891 14.1253 36.0841 14.5103 36.0841 14.8953C36.0141 17.8003 35.1741 18.9203 33.5291 21.1603L33.0041 21.8953C31.4991 23.9253 30.8691 26.4453 30.5891 28.1953C30.5191 28.5803 30.3441 28.8953 30.0641 29.1403C29.4691 29.6653 28.4891 29.6303 27.9291 29.0703C27.7891 28.9303 27.6841 28.7554 27.5791 28.5804C27.5091 28.4053 27.4741 28.1954 27.4741 27.9854C28.2091 22.8404 29.9591 18.4303 32.8291 14.5453C33.1791 14.0553 33.2141 13.4253 32.8641 12.9353C32.5491 12.4453 31.9541 12.2003 31.3591 12.3403L28.2441 13.0753C27.3341 13.2853 26.3891 13.2853 25.5141 13.0753L22.3991 12.3403C21.8041 12.2003 21.2441 12.4453 20.8941 12.9353C20.5441 13.4253 20.5791 14.0553 20.9291 14.5453C23.7991 18.3953 25.5491 22.8054 26.2841 27.9854C26.2841 28.4054 26.1091 28.7903 25.8291 29.0703C25.2691 29.6303 24.2891 29.6653 23.6941 29.1403C23.4141 28.8953 23.2041 28.5453 23.1691 28.1953C22.8891 26.4453 22.2591 23.9603 20.7541 21.8953L20.2291 21.1603C18.5841 18.9203 17.7441 17.8003 17.6741 14.8953C17.6741 14.5103 17.5691 14.1253 17.3591 13.8103C16.9741 13.1453 16.4141 12.5503 15.8191 12.0253C14.4541 10.9053 12.7741 10.3103 11.3041 10.4153C10.3591 10.4853 9.58907 10.8703 9.09907 11.5003C8.25907 12.5153 8.22409 14.0903 8.95908 15.6303C8.64408 15.8053 8.36408 16.0153 8.11908 16.2953C8.04908 16.3653 8.01408 16.4703 7.94408 16.5753C6.82408 14.4753 6.85909 12.1653 8.08408 10.6603C9.93908 8.45533 13.7891 8.63034 16.6241 11.0453C16.7641 11.1503 16.8691 11.2903 17.0441 11.4303C17.5341 11.8853 18.2691 11.9553 18.8291 11.6053C19.4941 11.1853 20.1941 10.8004 20.8941 10.4854C21.1741 10.3454 21.3141 9.99535 21.1741 9.71535C21.1041 9.57535 20.9991 9.47033 20.8591 9.40033C20.7191 9.33033 20.5441 9.36533 20.4041 9.40033C19.6691 9.75033 18.9341 10.1353 18.2341 10.5903C18.0941 10.6603 17.9541 10.6603 17.8491 10.5553C17.7091 10.4153 17.5341 10.2753 17.3941 10.1353C15.7841 8.77033 13.8241 8.00033 11.8991 7.96533C11.8291 7.96533 11.7591 7.96533 11.7241 7.96533C9.86907 7.96533 8.25909 8.66534 7.20909 9.92534C5.42409 12.0603 5.56409 15.3153 7.52409 18.0803C7.52409 18.3253 7.52409 18.6053 7.59409 18.8853C7.80409 19.8653 8.43409 20.8103 9.27409 21.5453C10.1841 22.3153 11.3391 22.7703 12.3891 22.7703C13.3341 22.7703 14.1391 22.4203 14.6641 21.7903C15.0841 21.3003 15.2591 20.6703 15.2591 20.0053H17.9891C18.3741 20.6003 18.7941 21.1953 19.3191 21.8953L19.8441 22.6303C21.2091 24.4853 21.8041 26.7953 22.0491 28.4403C22.0491 28.6153 22.1541 28.7904 22.2241 28.9654V36.6653C22.2241 37.5053 22.4341 38.3453 22.8191 39.1153L23.1691 39.7803C23.6241 40.7253 23.9041 41.7754 23.9041 42.8254V46.8154C23.9041 48.4954 25.2691 49.8604 26.9491 49.8604C27.7541 49.8604 28.5241 49.5454 29.0841 48.9854C29.6441 48.4254 29.9591 47.6554 29.9591 46.8504V42.8604C29.9591 41.8104 30.2041 40.7604 30.6591 39.8154L31.0091 39.1153C31.3941 38.3453 31.6041 37.5053 31.6041 36.6653V35.7553C31.6041 35.4403 31.3591 35.1603 31.0091 35.1603C30.6591 35.1603 30.4141 35.4053 30.4141 35.7553V36.6653C30.4141 37.3303 30.2741 37.9954 29.9591 38.5904L29.6091 39.2903C29.0491 40.3753 28.7691 41.6354 28.7691 42.8604V46.8504C28.7691 47.3404 28.5591 47.8304 28.2091 48.1804C27.9991 48.3904 27.7541 48.5304 27.4741 48.6004V30.1903C27.9291 30.5403 28.4541 30.7503 29.0491 30.7503C29.5391 30.7503 29.9941 30.5754 30.4141 30.3304V31.5553C30.4141 31.8703 30.6591 32.1503 31.0091 32.1503C31.3591 32.1503 31.6041 31.9053 31.6041 31.5553V28.9654C31.6041 28.9654 31.7441 28.6503 31.7791 28.4403C32.0241 26.8303 32.6191 24.5203 33.9841 22.6303L34.5091 21.8953C35.0341 21.1953 35.4541 20.6003 35.8391 20.0053H38.5341ZM44.7991 17.0653C45.5341 17.9403 45.0791 19.5503 43.7841 20.6703C43.0141 21.3353 42.0341 21.6853 41.1941 21.6153C40.7041 21.5803 40.3191 21.3703 40.0391 21.0553C39.3041 20.1803 39.7591 18.5703 41.0541 17.4503C42.3491 16.3653 44.0291 16.1903 44.7991 17.0653ZM24.2191 39.2553L23.8691 38.5904C23.5541 37.9954 23.4141 37.3303 23.4141 36.6653V30.3304C24.3241 30.8554 25.4791 30.7853 26.3541 30.1903V48.6004C25.6191 48.3554 25.0591 47.6554 25.0591 46.8504V42.8604C25.0591 41.6354 24.7791 40.4103 24.2191 39.2903V39.2553ZM31.9541 13.6003C31.9541 13.6003 32.0241 13.7753 31.9541 13.8803C29.5741 17.0653 27.8941 20.7403 26.9491 24.8003C26.0041 20.7403 24.3241 17.0653 21.9441 13.8803C21.8741 13.7753 21.9091 13.6703 21.9441 13.6003C21.9441 13.6003 22.0141 13.4953 22.1191 13.4953C22.1191 13.4953 22.1541 13.4953 22.1891 13.4953L25.3041 14.2304C26.3891 14.4754 27.5091 14.4754 28.5591 14.2304L31.6741 13.4953C31.6741 13.4953 31.8841 13.4953 31.9191 13.6003H31.9541ZM10.2191 16.4703C10.2191 16.4703 10.3591 16.4703 10.4291 16.4703C11.1991 16.4703 12.0741 16.8203 12.7741 17.4153C13.5441 18.0803 14.0691 18.9553 14.1391 19.7953C14.1741 20.2853 14.0691 20.7053 13.7891 21.0203C13.5091 21.3353 13.1241 21.5453 12.6341 21.5803C11.8291 21.6503 10.8491 21.3003 10.0441 20.6353C8.74908 19.5503 8.25909 17.9053 9.02909 17.0303C9.30909 16.7153 9.69408 16.5053 10.1841 16.4703H10.2191ZM13.5441 16.5053C12.5291 15.6653 11.3041 15.2103 10.1491 15.3153C9.51909 14.1253 9.44908 12.9354 10.0441 12.2354C10.3591 11.8504 10.8491 11.6403 11.4791 11.5703C11.5841 11.5703 11.6891 11.5703 11.7941 11.5703C12.8791 11.5703 14.1041 12.0603 15.1541 12.9353C15.6791 13.3553 16.1341 13.8803 16.4491 14.4403C16.5541 14.5803 16.5891 14.7903 16.5891 14.9653C16.6241 16.6453 16.9041 17.8004 17.3941 18.8504H15.1541C14.8741 18.0104 14.3141 17.2053 13.5441 16.5753V16.5053Z" fill="#0E8943"/>
<path d="M42.9453 40.7953L42.8753 40.6553C42.8753 40.6553 42.7353 40.4103 42.6303 40.3053C42.3853 40.0953 42.0353 40.1303 41.8253 40.3753C41.6853 40.5503 41.6853 40.8653 41.8253 41.1803L42.0703 41.6703C42.7703 43.1753 43.4703 44.6103 43.4703 45.4853C43.4703 45.5553 43.4703 45.5903 43.4703 45.6253C43.3653 47.4103 41.8953 48.8803 40.2503 48.8803C38.9903 48.8803 37.8703 48.1803 37.3453 47.0603C37.1353 46.6053 37.0303 46.1153 37.0303 45.6603C37.0303 44.5753 38.2903 41.6703 39.5503 39.2903C39.8303 38.7653 40.0753 38.2753 40.2503 37.8903C40.2503 37.8903 40.3203 37.9603 40.3553 37.9953C40.6003 38.2053 40.9503 38.2403 41.1953 37.9953C41.4053 37.7853 41.4053 37.4703 41.1953 37.0503C40.9503 36.6303 40.8103 36.3503 40.8103 36.3503C40.7403 36.2103 40.5653 36.1053 40.3903 36.0703C40.2503 36.0703 40.0403 36.0703 39.9003 36.2453C39.8303 36.3153 39.7603 36.4203 39.7603 36.4903C39.5503 36.8403 39.0953 37.7153 38.6053 38.7303C38.1503 39.5703 35.9453 43.8753 35.9453 45.6603C35.9453 46.2903 36.0853 46.9203 36.3653 47.5503C37.1003 49.0903 38.6053 50.0703 40.3203 50.0703C42.5603 50.0703 44.5903 48.0753 44.7303 45.6603C44.7303 45.5203 44.7303 45.4853 44.7303 45.4153C44.7303 44.3303 44.1353 43.1053 43.0853 40.8303L42.9453 40.7953Z" fill="#0E8943"/>
<path d="M42.0681 39.4306C42.0681 39.4306 42.1031 39.1156 42.0681 38.9756L41.9981 38.8356C41.9981 38.8356 41.8231 38.5906 41.6831 38.5556C41.5431 38.4856 41.3681 38.5206 41.2281 38.5556C41.0881 38.6256 40.9831 38.7305 40.9481 38.9055C40.9131 39.0455 40.9131 39.2206 40.9481 39.3606C40.9481 39.3606 40.9481 39.4306 41.0181 39.4656C41.1231 39.6756 41.3331 39.8156 41.5431 39.8156C41.6131 39.8156 41.7181 39.8155 41.7881 39.7455C41.9281 39.6755 42.0331 39.5706 42.1031 39.4306H42.0681Z" fill="#0E8943"/>
<path d="M47.8095 31.0305C47.7045 30.8555 47.5295 30.7505 47.2845 30.7505C47.0745 30.7505 46.8645 30.8555 46.7595 31.0305C46.2345 31.9755 44.5195 35.1955 44.5195 36.4205C44.5195 37.9255 45.7445 39.1855 47.2845 39.1855C48.8245 39.1855 50.0495 37.9605 50.0495 36.4205C50.0495 35.1255 48.1945 31.6955 47.8095 31.0305ZM48.8945 36.4205C48.8945 37.2955 48.1945 37.9955 47.3195 37.9955C46.4445 37.9955 45.7446 37.2955 45.7446 36.4205C45.7446 35.8255 46.5845 34.0055 47.3195 32.5355C48.0895 34.0055 48.8945 35.8255 48.8945 36.4205Z" fill="#0E8943"/>
<path d="M41.4408 47.0252C41.4408 47.0252 41.6508 47.1302 41.7908 47.1302C41.9658 47.1302 42.1408 47.0602 42.2458 46.8852C42.8758 46.0802 42.7008 44.8902 41.8958 44.2602C41.7908 44.1552 41.6158 44.1202 41.4758 44.1552C41.3358 44.1552 41.1958 44.2602 41.0908 44.3652C40.9858 44.5052 40.9508 44.6452 40.9858 44.7852C40.9858 44.9252 41.0908 45.0652 41.1958 45.1702C41.3358 45.2752 41.4408 45.4502 41.4758 45.6252C41.4758 45.8002 41.4758 46.0102 41.3358 46.1502C41.1608 46.3952 41.1958 46.7802 41.4408 46.9552V47.0252Z" fill="#0E8943"/>
</g>
</g>
</svg>
