<svg width="56" height="57" viewBox="0 0 56 57" fill="none" xmlns="http://www.w3.org/2000/svg">
<mask id="mask0_2167_3395" style="mask-type:luminance" maskUnits="userSpaceOnUse" x="0" y="0" width="56" height="57">
<path d="M56 0.666992H0V56.667H56V0.666992Z" fill="white"/>
</mask>
<g mask="url(#mask0_2167_3395)">
<mask id="mask1_2167_3395" style="mask-type:luminance" maskUnits="userSpaceOnUse" x="0" y="1" width="56" height="57">
<path d="M56 1.00049H0V57.0005H56V1.00049Z" fill="white"/>
</mask>
<g mask="url(#mask1_2167_3395)">
<path d="M34.793 21.4054C34.793 20.4954 35.528 19.7954 36.403 19.7954C37.278 19.7954 38.083 20.5304 38.083 21.4054C38.083 22.2804 37.348 23.0854 36.403 23.0854C35.458 23.0854 34.793 22.3154 34.793 21.4054Z" fill="#0E8943"/>
<path d="M34.5117 33.3756C34.5117 32.0106 35.6317 30.8906 36.9967 30.8906C38.3617 30.8906 39.4817 32.0106 39.4817 33.3756C39.4817 34.7406 38.3617 35.8606 36.9967 35.8606C35.6317 35.8606 34.5117 34.7406 34.5117 33.3756Z" fill="#0E8943"/>
<path d="M23.7651 45.9407C22.6451 44.7507 22.0501 42.9657 22.3651 40.5157C22.3651 40.0957 22.4001 39.6757 22.5051 39.2207C22.9601 39.2207 23.4501 39.1506 23.8701 38.9756C25.8301 38.2056 26.6351 35.9307 27.1251 33.9007C27.4401 32.5357 27.6851 31.1707 27.5451 29.7707C27.3701 28.5807 26.9151 27.3206 27.3351 26.2356C27.7551 25.0456 29.0501 24.3807 29.7151 23.3307C30.4851 22.2107 30.5201 20.7406 31.2901 19.6206C31.6051 19.1656 31.9901 18.8156 32.4451 18.5356C31.8851 23.5406 31.7451 28.5456 32.1301 33.6206C32.2701 34.9156 32.4801 36.2107 32.7601 37.5057C32.7951 37.7157 32.8301 37.9256 32.9351 38.1006C33.0051 38.5206 33.1451 38.9407 33.2851 39.3957C36.2251 47.1657 27.3001 50.0006 23.7651 45.9756V45.9407Z" fill="#0E8943"/>
<path d="M23.7656 45.9403C24.0806 45.5203 24.4656 45.1703 24.9206 44.9253C25.5506 44.5753 26.2506 44.5053 26.9156 44.2253C28.0006 43.8403 28.9806 43.0353 29.4356 41.9853C29.6806 41.3903 29.8206 40.6903 30.1706 40.1303C30.6956 39.1153 31.7456 38.4503 32.8306 38.0653C32.8656 38.0653 32.9006 38.0303 32.9706 38.0303C33.0406 38.4503 33.1806 38.8703 33.3206 39.3253C36.2606 47.0953 27.3356 49.9303 23.8006 45.9053L23.7656 45.9403Z" fill="#0E8943"/>
<path d="M32.4817 33.1306C32.4817 33.1306 32.2017 32.9906 32.0617 33.0256C31.9217 33.0256 31.7817 33.1306 31.6767 33.2356C31.5717 33.3406 31.5367 33.5156 31.5717 33.6556C31.7117 34.7756 31.8517 35.7906 32.0267 36.7706C32.0617 37.0506 32.3067 37.2256 32.5867 37.2256C32.6217 37.2256 32.6567 37.2256 32.6917 37.2256C33.0067 37.1556 33.2167 36.8756 33.1467 36.5606C32.9717 35.6506 32.8317 34.6706 32.6917 33.5506C32.6917 33.4106 32.5867 33.2356 32.4817 33.1656V33.1306Z" fill="#0E8943"/>
<path d="M25.4453 22.0354C25.2003 22.7704 23.3803 29.7004 22.8553 32.3954C22.5053 34.1454 22.2603 35.8604 22.0503 37.5054C21.9103 38.5904 21.8403 39.6054 21.8053 40.4454C21.3853 43.7004 22.5053 46.2904 24.9203 47.5854C25.8653 48.0754 26.9503 48.3554 28.0703 48.3554C29.7503 48.3554 31.3603 47.7604 32.5503 46.7454C34.5453 44.9954 35.0353 42.2304 33.8803 39.1854C33.8103 39.0454 33.7053 38.9054 33.5653 38.8704C33.4253 38.8004 33.2853 38.8004 33.1453 38.8704C33.0053 38.9404 32.9003 39.0454 32.8303 39.1854C32.7603 39.3254 32.7603 39.4654 32.8303 39.6404C33.8103 42.2654 33.4603 44.4704 31.8153 45.9054C30.1353 47.3754 27.4753 47.6554 25.5153 46.6054C23.5553 45.5554 22.6453 43.4204 23.0303 40.5854C23.0653 39.6754 23.1703 38.7304 23.2753 37.6804C23.4503 36.0704 23.7303 34.3904 24.0803 32.6754C24.5703 30.0504 26.3903 23.2254 26.6353 22.4554C29.1553 14.3004 33.3903 7.72043 33.8803 7.09043C33.9853 6.88043 34.1603 6.88043 34.2653 6.88043C34.2653 6.88043 34.3703 6.88043 34.3703 7.05543C32.9703 10.8354 32.3753 14.9304 31.9903 18.0804C31.5353 22.0704 31.3603 25.9904 31.4303 29.7704C31.4303 30.0854 31.7103 30.3304 32.0253 30.3304C32.0253 30.3304 32.3403 30.2604 32.4453 30.1554C32.5503 30.0504 32.6203 29.9104 32.5853 29.7354C32.5153 26.0254 32.6903 22.1754 33.1103 18.2204C33.4953 15.0704 34.0903 11.0104 35.4553 7.37043C35.4553 7.33543 35.4553 7.26542 35.4553 7.23042C35.5253 6.53042 35.1403 5.93543 34.5103 5.76043C34.3703 5.72543 34.2303 5.69043 34.0903 5.69043C33.7403 5.69043 33.4253 5.86543 33.1453 6.07543C33.0403 6.18043 32.9003 6.25043 32.8303 6.39043C32.3053 7.02043 28.0353 13.5654 25.4103 22.0704L25.4453 22.0354Z" fill="#0E8943"/>
<path d="M36.9942 35.2654C35.9442 35.2654 35.1042 34.4254 35.1042 33.3754C35.1042 32.3254 35.9442 31.4854 36.9942 31.4854C37.3092 31.4854 37.5892 31.2404 37.5892 30.8904C37.5892 30.5404 37.3442 30.2954 36.9942 30.2954C35.3142 30.2954 33.9492 31.6604 33.9492 33.3404C33.9492 35.0204 35.3142 36.3854 36.9942 36.3854C38.6742 36.3854 40.0392 35.0204 40.0392 33.3404C40.0392 33.0254 39.7942 32.7454 39.4442 32.7454C39.0942 32.7454 38.8492 32.9904 38.8492 33.3404C38.8492 34.3904 38.0092 35.2304 36.9592 35.2304L36.9942 35.2654Z" fill="#0E8943"/>
<path d="M36.4353 19.2002C35.2103 19.2002 34.1953 20.2152 34.1953 21.4402C34.1953 22.6652 35.2103 23.6802 36.4353 23.6802C37.6603 23.6802 38.6753 22.6652 38.6753 21.4402C38.6753 20.2152 37.6603 19.2002 36.4353 19.2002ZM37.5203 21.4402C37.5203 22.0352 37.0303 22.5252 36.4353 22.5252C35.8403 22.5252 35.3503 22.0352 35.3503 21.4402C35.3503 20.8452 35.8403 20.3902 36.4353 20.3902C37.0303 20.3902 37.5203 20.8802 37.5203 21.4402Z" fill="#0E8943"/>
<path d="M19.2864 20.8103C19.6014 20.8103 19.8814 20.5653 19.8814 20.2153C19.8814 19.6203 20.3714 19.1303 20.9314 19.1303C21.4914 19.1303 22.0164 19.6203 22.0164 20.2153C22.0164 20.8103 21.5264 21.3002 20.9314 21.3002C20.6164 21.3002 20.3364 21.5453 20.3364 21.8953C20.3364 22.2453 20.5814 22.4902 20.9314 22.4902C22.1564 22.4902 23.1714 21.4753 23.1714 20.2503C23.1714 19.0253 22.1564 18.0103 20.9314 18.0103C19.7064 18.0103 18.6914 19.0253 18.6914 20.2503C18.6914 20.5653 18.9364 20.8453 19.2864 20.8453V20.8103Z" fill="#0E8943"/>
<path d="M36.9967 12.5154C37.8717 12.5154 38.6067 11.7804 38.6067 10.9054C38.6067 10.0304 37.8717 9.29541 36.9967 9.29541C36.1217 9.29541 35.3867 10.0304 35.3867 10.9054C35.3867 11.7804 36.1217 12.5154 36.9967 12.5154ZM36.5417 10.9054C36.5417 10.6604 36.7517 10.4504 36.9967 10.4504C37.2417 10.4504 37.4517 10.6604 37.4517 10.9054C37.4517 11.1504 37.2417 11.3604 36.9967 11.3604C36.7517 11.3604 36.5417 11.1504 36.5417 10.9054Z" fill="#0E8943"/>
<path d="M25.692 14.2307C26.567 14.2307 27.302 13.4957 27.302 12.6207C27.302 11.7457 26.567 11.0107 25.692 11.0107C24.817 11.0107 24.082 11.7457 24.082 12.6207C24.082 13.4957 24.817 14.2307 25.692 14.2307ZM25.237 12.6207C25.237 12.3757 25.447 12.1657 25.692 12.1657C25.937 12.1657 26.147 12.3757 26.147 12.6207C26.147 12.8657 25.937 13.0757 25.692 13.0757C25.447 13.0757 25.237 12.8657 25.237 12.6207Z" fill="#0E8943"/>
<path d="M18.9014 33.9703C20.4764 33.9703 21.7364 32.7103 21.7364 31.1353C21.7364 29.5603 20.4764 28.3003 18.9014 28.3003C17.3264 28.3003 16.0664 29.5603 16.0664 31.1353C16.0664 32.7103 17.3264 33.9703 18.9014 33.9703ZM17.2214 31.1353C17.2214 30.2253 17.9564 29.4553 18.9014 29.4553C19.8464 29.4553 20.5814 30.1903 20.5814 31.1353C20.5814 32.0803 19.8464 32.8153 18.9014 32.8153C17.9564 32.8153 17.2214 32.0803 17.2214 31.1353Z" fill="#0E8943"/>
<path d="M45.6061 37.2256H42.0011C39.6911 37.2256 37.7661 39.1156 37.7661 41.4606C37.7661 46.8506 33.3561 51.2606 27.9661 51.2606C22.5761 51.2606 18.1661 46.8506 18.1661 41.4606C18.1661 39.1506 16.2761 37.2256 13.9311 37.2256H5.21609C4.90109 37.2256 4.62109 37.4706 4.62109 37.8206C4.62109 38.1706 4.86609 38.4156 5.21609 38.4156H13.9661C15.6461 38.4156 17.0111 39.7806 17.0111 41.4606C17.0111 47.5156 21.9111 52.4156 27.9661 52.4156C34.0211 52.4156 38.9211 47.5156 38.9211 41.4606C38.9211 39.7806 40.2861 38.4156 41.9661 38.4156H45.5711C45.8861 38.4156 46.1661 38.1706 46.1661 37.8206C46.1661 37.4706 45.9211 37.2256 45.5711 37.2256H45.6061Z" fill="#0E8943"/>
<path d="M50.7856 37.2256H47.9856C47.6706 37.2256 47.3906 37.4706 47.3906 37.8206C47.3906 38.1706 47.6356 38.4156 47.9856 38.4156H50.7856C51.1006 38.4156 51.3806 38.1706 51.3806 37.8206C51.3806 37.4706 51.1356 37.2256 50.7856 37.2256Z" fill="#0E8943"/>
<path d="M25.69 37.1905L25.97 34.6705C26.005 34.3555 25.76 34.0755 25.445 34.0405C25.445 34.0405 25.41 34.0405 25.375 34.0405C25.06 34.0405 24.815 34.2505 24.78 34.5655L24.5 37.0855C24.5 37.0855 24.5 37.4005 24.605 37.5055C24.71 37.6105 24.85 37.7155 24.99 37.7155C24.99 37.7155 25.025 37.7155 25.06 37.7155C25.34 37.7155 25.62 37.5055 25.62 37.1905H25.69Z" fill="#0E8943"/>
<path d="M24.5373 38.4504C24.5373 38.4504 24.3273 38.6954 24.2923 38.8354L24.1523 39.9554C24.1523 39.9554 24.1523 40.2704 24.2573 40.3754C24.3623 40.4804 24.5023 40.5854 24.6423 40.5854C24.6423 40.5854 24.6773 40.5854 24.7123 40.5854C24.9923 40.5854 25.2373 40.3754 25.2723 40.0604L25.4123 38.9054C25.4473 38.5904 25.2373 38.3104 24.9223 38.2754C24.7823 38.2754 24.6423 38.2754 24.5023 38.3804L24.5373 38.4504Z" fill="#0E8943"/>
</g>
</g>
</svg>
