<svg width="56" height="56" viewBox="0 0 56 56" fill="none" xmlns="http://www.w3.org/2000/svg">
<mask id="mask0_2167_3331" style="mask-type:luminance" maskUnits="userSpaceOnUse" x="0" y="0" width="56" height="56">
<path d="M56 0H0V56H56V0Z" fill="white"/>
</mask>
<g mask="url(#mask0_2167_3331)">
<mask id="mask1_2167_3331" style="mask-type:luminance" maskUnits="userSpaceOnUse" x="0" y="0" width="56" height="56">
<path d="M56 0H0V56H56V0Z" fill="white"/>
</mask>
<g mask="url(#mask1_2167_3331)">
<path d="M7.03516 22.715C7.70016 22.75 8.36516 22.75 9.03016 22.75C10.5002 22.75 12.1452 22.715 13.3002 21.77C14.7702 20.58 15.0502 18.48 15.0502 16.59C15.0502 15.47 15.0502 13.825 14.7352 12.25C10.4652 13.58 7.28016 17.745 7.03516 22.68V22.715Z" fill="#0E8943"/>
<path d="M10.0819 37.3453C10.1169 37.7653 10.1869 38.1853 10.2219 38.6053C10.6069 42.1403 10.9219 45.2553 13.5119 49.2453C14.3169 50.4703 15.7869 51.0303 17.1169 50.6453C18.5519 50.2253 19.5319 48.8953 19.5319 47.3203V43.0503C19.5319 40.5303 21.3869 38.5003 23.6619 38.5003C24.9219 38.5003 26.0769 39.1303 26.8469 40.1103C27.4769 40.9153 27.8619 41.9303 27.8619 43.0503V47.3203C27.8619 48.8953 28.8419 50.2253 30.2769 50.6453C30.5569 50.7153 30.8719 50.7503 31.1519 50.7503C32.2369 50.7503 33.2169 50.2253 33.8469 49.2103C34.0569 48.8953 34.2669 48.5453 34.4419 48.1953C34.5469 48.0203 34.6869 47.8103 34.7919 47.6003C36.5069 44.3453 36.8219 41.6503 37.1369 38.6053C37.2419 37.6953 37.3469 36.6453 37.5219 35.5603C37.9769 34.8953 38.3619 34.1953 38.6769 33.4603C39.4119 31.8503 39.8669 30.1353 40.0419 28.3853C40.3219 25.4803 40.3569 23.5553 40.3569 23.3103C40.3569 21.6303 40.0419 20.0553 39.4119 18.6203C38.6419 18.4103 37.8719 18.2353 37.0669 18.0953C34.7919 17.7103 32.4119 17.5703 30.2769 18.4103C27.3019 19.5653 25.3069 22.3653 23.6969 25.1303C22.1219 27.8953 20.6519 30.9053 18.2019 32.9003C15.8219 34.8603 12.7069 35.7353 10.0469 37.2753L10.0819 37.3453Z" fill="#0E8943"/>
<path d="M26.8438 40.1098C27.4738 40.9148 27.8587 41.9298 27.8587 43.0498V47.3198C27.8587 48.8948 28.8387 50.2248 30.2737 50.6448C30.5537 50.7148 30.8687 50.7498 31.1487 50.7498C32.2337 50.7498 33.2138 50.2248 33.8438 49.2098C34.0538 48.8948 34.2638 48.5448 34.4388 48.1948C34.5438 48.0198 34.6837 47.8098 34.7887 47.5998C36.5037 44.3448 36.8187 41.6498 37.1337 38.6048C37.2387 37.6948 37.3438 36.6448 37.5188 35.5598C37.9738 34.8948 38.3588 34.1948 38.6738 33.4598C36.5738 32.5498 33.9138 32.4448 32.4088 34.1248C31.1488 35.5248 31.0087 37.7648 29.5737 38.9198C28.8037 39.5498 27.8238 39.7598 26.8438 40.0748V40.1098Z" fill="#0E8943"/>
<path d="M29.5764 11.2352C27.5464 11.2352 25.5514 11.8302 23.8014 12.9152C21.5964 11.4102 19.3214 11.2352 17.7814 11.2352C16.6964 11.2352 15.6114 11.4102 14.5614 11.7252C9.97641 13.1602 6.72141 17.5702 6.44141 22.6452C6.44141 22.8902 6.44141 23.1352 6.44141 23.3452C6.44141 23.8702 6.44141 25.7252 6.72141 28.4552C7.00141 31.0802 7.87641 33.6002 9.27641 35.7702C9.34641 36.2252 9.41641 36.7152 9.45141 37.1352L9.62641 38.6402C10.0114 42.2802 10.3264 45.3952 13.0214 49.5252C13.9664 50.9602 15.6464 51.6252 17.2564 51.1702C18.9714 50.6802 20.0914 49.1052 20.0914 47.2852V43.0152C20.0914 40.8102 21.7014 39.0252 23.6614 39.0252C24.7114 39.0252 25.6914 39.5502 26.3914 40.4252C26.9864 41.1602 27.2664 42.0352 27.2664 43.0152V47.2852C27.2664 49.1402 28.4214 50.6802 30.1364 51.2052C30.4864 51.3102 30.8364 51.3452 31.1514 51.3452C32.4464 51.3452 33.6014 50.6802 34.3714 49.5252C34.6164 49.1752 34.7914 48.8602 34.9664 48.5452C35.0714 48.4052 35.1414 48.2302 35.2464 48.0202L35.3164 47.8802C37.1014 44.5202 37.4164 41.6852 37.7314 38.6752C37.8364 37.8002 37.9414 36.8202 38.0814 35.7702C38.4664 35.1752 38.8514 34.4752 39.2014 33.7052C39.9714 32.0602 40.4264 30.2402 40.6014 28.4552C40.9164 25.3052 40.9164 23.3452 40.9164 23.3452C40.9164 21.5952 40.6014 19.9502 39.9364 18.4102C38.1164 14.0352 34.0214 11.2002 29.5414 11.2002L29.5764 11.2352ZM30.4514 50.1202C29.2614 49.7702 28.4564 48.6502 28.4564 47.3552V43.0852C28.4564 41.8602 28.0714 40.7402 27.3364 39.7952C26.4614 38.6052 25.1314 37.9402 23.6964 37.9402C21.1064 37.9402 18.9714 40.2502 18.9714 43.0852V47.3552C18.9714 48.6502 18.1664 49.7702 16.9764 50.1202C15.8564 50.4352 14.6664 49.9452 14.0014 48.9652C11.4814 45.0802 11.1664 42.0702 10.8164 38.5702L10.6414 37.0302C10.5714 36.5052 10.5014 36.0152 10.4314 35.4902C10.4314 35.4202 10.3964 35.3152 10.3264 35.2452C8.96141 33.2152 8.12141 30.8002 7.87641 28.3502C7.63141 25.6552 7.59641 23.8352 7.59641 23.3452C7.59641 23.1352 7.59641 22.9602 7.59641 22.7502C7.84141 18.0952 10.7814 14.1402 14.9114 12.8452C15.8214 12.5652 16.8014 12.3902 17.7814 12.3902C19.0414 12.3902 20.9314 12.5302 22.7864 13.6152C22.0514 14.1402 20.5814 15.0152 18.6214 15.5402C18.3064 15.6102 18.1314 15.9252 18.2014 16.2402C18.2714 16.5202 18.5864 16.7302 18.9014 16.6602C22.1214 15.8202 24.1164 14.0702 24.1164 14.0702C25.7614 12.9852 27.6514 12.3902 29.5764 12.3902C33.6014 12.3902 37.2414 14.9452 38.8864 18.9002C39.4814 20.3002 39.7964 21.8052 39.7964 23.3802C39.7964 23.3802 39.7964 25.3052 39.4814 28.3852C39.3064 30.0652 38.8514 31.7452 38.1514 33.2852C37.8014 34.0552 37.4514 34.7202 37.0314 35.2802C36.9964 35.3502 36.9614 35.4202 36.9264 35.5252C36.7514 36.6102 36.6464 37.6952 36.5414 38.6052C36.2264 41.6152 35.9464 44.2052 34.2664 47.3552L34.1964 47.4602C34.0914 47.6352 34.0214 47.7752 33.9164 47.9502C33.7414 48.2652 33.5664 48.5452 33.3214 48.9302C32.6564 49.9452 31.5714 50.4002 30.4164 50.0852L30.4514 50.1202Z" fill="#0E8943"/>
<path d="M35.948 24.3604C35.948 24.3604 35.913 24.3604 35.878 24.3604C35.738 24.3604 35.633 24.3953 35.528 24.5003C35.423 24.6053 35.318 24.7454 35.318 24.8854V25.2004C35.213 25.6904 35.178 26.1453 35.038 26.5653C35.003 26.7053 35.003 26.8804 35.038 27.0204C35.108 27.1604 35.213 27.2654 35.388 27.3004C35.458 27.3004 35.493 27.3004 35.563 27.3004C35.808 27.3004 36.053 27.1253 36.123 26.9153C36.298 26.3903 36.368 25.8304 36.438 25.2704V24.9904C36.438 24.9904 36.438 24.6753 36.333 24.5703C36.228 24.4653 36.088 24.3604 35.948 24.3604Z" fill="#0E8943"/>
<path d="M35.318 21.6299C35.318 21.9449 35.563 22.2249 35.913 22.2249C36.263 22.2249 36.508 21.9799 36.508 21.6299C36.508 19.0399 34.513 16.0649 30.698 15.3999C30.523 15.3999 30.383 15.3999 30.278 15.4699C30.138 15.5399 30.068 15.7149 30.033 15.8549C29.963 16.1699 30.173 16.4849 30.488 16.5199C33.673 17.0799 35.353 19.4949 35.353 21.6299H35.318Z" fill="#0E8943"/>
<path d="M47.4247 9.17028C47.4247 9.17028 47.6347 8.92527 47.6347 8.78527C47.6347 8.64527 47.6347 8.47028 47.4947 8.36528C47.3897 8.26028 47.2497 8.15527 47.1097 8.15527H47.0747C46.9347 8.15527 46.7947 8.19028 46.6897 8.29528L43.0147 11.3753C43.0147 11.3753 42.8397 11.6203 42.8047 11.7603C42.8047 11.9003 42.8047 12.0753 42.9447 12.1803C43.0497 12.3203 43.2247 12.3903 43.3997 12.3903C43.5397 12.3903 43.6797 12.3553 43.7847 12.2503L47.4597 9.17028H47.4247Z" fill="#0E8943"/>
<path d="M49.353 15.5052C49.353 15.5052 49.143 15.3652 49.003 15.3652C49.003 15.3652 48.968 15.3652 48.933 15.3652L44.208 15.7502C43.893 15.7502 43.648 16.0652 43.683 16.3802C43.683 16.6952 43.963 16.9052 44.278 16.9052H44.313L49.038 16.5202C49.353 16.5202 49.598 16.2052 49.563 15.8902C49.563 15.7152 49.458 15.5752 49.353 15.4702V15.5052Z" fill="#0E8943"/>
<path d="M39.6578 10.1501H39.7278C40.0078 10.1501 40.2528 9.94012 40.2878 9.66012L40.9178 5.28512C40.9528 4.97012 40.7428 4.69012 40.4278 4.62012C40.2878 4.62012 40.1478 4.62012 40.0078 4.69012C39.8678 4.79512 39.7628 4.93512 39.7628 5.11012L39.1328 9.48512C39.1328 9.48512 39.1328 9.80012 39.2378 9.90512C39.3428 10.0451 39.4828 10.1151 39.6228 10.1151L39.6578 10.1501Z" fill="#0E8943"/>
</g>
</g>
</svg>
