<svg width="103" height="34" viewBox="0 0 103 34" fill="none" xmlns="http://www.w3.org/2000/svg">
<path d="M100 0.5V3.5H103V5.5H100V8.5H98V5.5H95V3.5H98V0.5H100Z" fill="#fff"/>
<path d="M98 10.5V31.5H2V5.5H93V3.5H0V33.5H100V10.5H98Z" fill="#fff"/>
<path d="M35.2868 11.6366H33.0258L33.0828 18.3626C33.0828 18.654 33.0955 19.0086 33.1208 19.4266L33.1968 20.6426C32.9435 20.2626 32.6838 19.87 32.4178 19.4646C32.1645 19.0466 31.9112 18.654 31.6578 18.2866L27.1928 11.5986H25.4258V24.4996H27.6868L27.6298 17.7736C27.6298 17.3683 27.6108 16.944 27.5728 16.5006C27.5475 16.0573 27.5158 15.633 27.4778 15.2276C27.7312 15.6203 27.9972 16.051 28.2758 16.5196C28.5672 16.9756 28.8332 17.3873 29.0738 17.7546L33.4058 24.5186H35.2868V11.6366Z" fill="#fff"/>
<path d="M14.5423 24.4996H12.7753L7.96826 11.6366H10.3813L11.9773 16.2346C12.3826 17.4253 12.7309 18.4766 13.0223 19.3886C13.3136 20.288 13.5353 20.9783 13.6873 21.4596C13.8266 20.9783 14.0356 20.3006 14.3143 19.4266C14.6056 18.54 14.9666 17.4886 15.3973 16.2726L17.0503 11.6366H19.3493L14.5423 24.4996Z" fill="#fff"/>
<path d="M20.5089 11.6366H22.7699V24.4996H20.5089V11.6366Z" fill="#fff"/>
<path fill-rule="evenodd" clip-rule="evenodd" d="M41.4653 11.6366H43.2513L48.2103 24.4996H45.7973L44.6193 21.1366H39.9833L38.7673 24.4996H36.5253L41.4653 11.6366ZM44.0303 19.4646C43.6249 18.3246 43.2766 17.2923 42.9853 16.3676C42.6939 15.4303 42.4723 14.6956 42.3203 14.1636C42.1429 14.7336 41.9086 15.481 41.6173 16.4056C41.3259 17.3303 40.9839 18.35 40.5913 19.4646H44.0303Z" fill="#fff"/>
<path d="M46.7882 11.6366L50.7782 19.5786V24.4996H53.0392V19.6736L57.0862 11.6366H54.6922L51.9372 17.4696L49.2392 11.6366H46.7882Z" fill="#fff"/>
<path fill-rule="evenodd" clip-rule="evenodd" d="M60.5951 11.6366H62.3811L67.3401 24.4996H64.9271L63.7491 21.1366H59.1131L57.8971 24.4996H55.6551L60.5951 11.6366ZM63.1601 19.4646C62.7548 18.3246 62.4065 17.2923 62.1151 16.3676C61.8238 15.4303 61.6021 14.6956 61.4501 14.1636C61.2728 14.7336 61.0385 15.481 60.7471 16.4056C60.4558 17.3303 60.1138 18.35 59.7211 19.4646H63.1601Z" fill="#fff"/>
<path d="M70.845 11.6366H68.5841V24.4996H70.845V11.6366Z" fill="#fff"/>
<path d="M76.8111 14.0686C77.0644 13.3973 77.2924 12.5866 77.495 11.6366H75.272C74.93 13.0933 74.4361 14.3156 73.7901 15.3036C73.1567 16.279 72.2574 16.982 71.0921 17.4126V17.5456L75.994 24.4996H78.6161L73.9421 17.8116C74.3347 17.5456 74.702 17.2543 75.0441 16.9376C75.3987 16.6083 75.7217 16.2156 76.0131 15.7596C76.3044 15.291 76.5704 14.7273 76.8111 14.0686Z" fill="#fff"/>
<path d="M87.0296 24.4996H85.4336L83.2866 19.6166C83.2233 19.4773 83.141 19.2873 83.0396 19.0466C82.951 18.806 82.8496 18.54 82.7356 18.2486C82.6216 17.9573 82.5013 17.6533 82.3746 17.3366C82.248 17.0073 82.1276 16.678 82.0136 16.3486C82.0136 16.678 82.0073 17.0073 81.9946 17.3366C81.9946 17.6533 81.9883 17.9573 81.9756 18.2486C81.963 18.5273 81.9503 18.7806 81.9376 19.0086V19.5216L81.7476 24.4996H79.6196L80.3796 11.5986H82.1466L85.3956 19.6546C85.5096 19.946 85.6363 20.2626 85.7756 20.6046C85.9276 20.9466 86.067 21.2823 86.1936 21.6116C86.3203 21.2823 86.4533 20.953 86.5926 20.6236C86.732 20.2816 86.865 19.9586 86.9916 19.6546L90.2596 11.5986H91.9886L92.7486 24.4996H90.6396L90.4306 19.5786C90.418 19.262 90.399 18.8123 90.3736 18.2296C90.361 17.6343 90.3483 17.0326 90.3356 16.4246C90.2216 16.7413 90.1013 17.058 89.9746 17.3746C89.8606 17.6913 89.753 17.989 89.6516 18.2676C89.5503 18.5463 89.4553 18.7996 89.3666 19.0276C89.278 19.2556 89.2083 19.433 89.1576 19.5596L87.0296 24.4996Z" fill="#fff"/>
</svg>
