<svg width="56" height="57" viewBox="0 0 56 57" fill="none" xmlns="http://www.w3.org/2000/svg">
<mask id="mask0_2167_3752" style="mask-type:luminance" maskUnits="userSpaceOnUse" x="0" y="0" width="56" height="57">
<path d="M56 0.333008H0V56.333H56V0.333008Z" fill="white"/>
</mask>
<g mask="url(#mask0_2167_3752)">
<path d="M20.3377 22.8383C20.3027 21.6133 20.7927 20.4933 21.5627 19.6883H21.6327C22.2977 18.9183 23.1377 18.3933 24.1877 18.2533V10.3433C24.3977 10.3433 24.6427 10.4133 24.8527 10.4483C26.5327 10.8683 28.1777 11.8833 28.8077 13.4933C29.9627 16.4683 27.4777 19.6533 27.5827 22.8033C27.6527 24.1683 28.1427 25.4283 28.7377 26.6533C28.4927 26.4783 28.2477 26.3033 28.0027 26.0933C27.1277 26.8983 25.9727 27.3533 24.6777 27.3183C23.9077 27.2833 23.2077 27.0383 22.5777 26.6533C21.2477 25.8833 20.3727 24.4483 20.3377 22.8383Z" fill="#0E8943"/>
<path d="M30.5559 32.4279C30.5559 34.1429 29.8209 35.7179 28.4909 36.8029C25.9009 38.9029 29.2609 43.8729 27.6509 47.4429C26.3909 49.6829 24.2909 49.2629 24.1859 49.3329C24.3609 38.8329 23.8709 40.0229 22.0509 37.4679C21.3159 36.4529 20.3709 35.4379 20.3359 34.0379V33.8279C20.3709 31.9379 21.5959 30.2579 23.3109 29.6629C23.7309 29.4529 24.1859 29.3829 24.6759 29.3479C25.9709 29.2779 27.1259 29.7679 28.0009 30.5729C28.5259 30.0479 29.2259 29.6629 29.9609 29.4879C30.2759 30.4679 30.5209 31.4129 30.5559 32.4279Z" fill="#0E8943"/>
<path d="M33.5328 26.4781C33.2178 25.7081 33.0428 24.8331 33.2178 23.9931C33.3578 23.1881 33.8478 22.4181 34.5828 21.9981C34.8978 21.8231 35.2128 21.7531 35.5278 21.6831C35.6328 22.0331 35.6678 22.4181 35.6678 22.8381C35.6328 24.4131 34.8278 25.7781 33.5678 26.5831C33.5678 26.5831 33.5328 26.5131 33.5328 26.4781Z" fill="#0E8943"/>
<path d="M35.6655 33.828C35.7005 35.018 35.2455 36.138 34.4755 36.943C34.1955 36.768 33.9855 36.558 33.7755 36.278C33.5305 35.893 33.3555 35.438 33.2505 34.983C32.8305 33.478 32.9005 31.833 33.4605 30.363C33.4955 30.258 33.5305 30.153 33.5655 30.083C34.8255 30.888 35.6305 32.253 35.6655 33.828Z" fill="#0E8943"/>
<path d="M23.3109 29.6631C23.5559 31.2031 23.1359 32.8831 21.8059 33.6531C21.3859 33.9331 20.8609 34.0381 20.3359 34.0381V33.8281C20.3709 31.9381 21.5959 30.2581 23.3109 29.6631Z" fill="#0E8943"/>
<path d="M20.3377 22.838C20.3027 21.613 20.7927 20.493 21.5627 19.688H21.6327C22.9977 20.248 24.0477 21.718 23.7677 23.188C23.5577 24.238 22.7527 25.078 22.5777 26.128C22.5427 26.303 22.5427 26.478 22.5777 26.653C21.2477 25.883 20.3727 24.448 20.3377 22.838Z" fill="#0E8943"/>
<path d="M26.567 18.953C26.567 18.953 26.462 18.953 26.392 18.953C25.727 18.673 24.957 18.603 24.257 18.708C24.012 18.708 23.802 18.568 23.767 18.358C23.732 18.113 23.872 17.903 24.117 17.868C24.957 17.728 25.902 17.833 26.707 18.148C26.917 18.218 27.057 18.498 26.952 18.708C26.882 18.883 26.707 18.988 26.532 18.988L26.567 18.953Z" fill="#0E8943"/>
<path d="M28.0031 26.5128C28.0031 26.5128 27.7931 26.4778 27.7231 26.4078C27.4781 26.1978 27.2681 25.9178 27.0581 25.6378C26.7081 25.1128 26.1481 24.7628 25.5181 24.6578L25.2381 24.5878C24.9931 24.5528 24.8531 24.3078 24.8881 24.0628C24.9231 23.8178 25.1331 23.6778 25.4131 23.7128L25.6931 23.7828C26.5331 23.9578 27.2681 24.4128 27.7931 25.1128C27.9681 25.3228 28.1431 25.5328 28.3531 25.7428C28.5281 25.9178 28.5281 26.1978 28.3531 26.3728C28.2481 26.4778 28.1431 26.5128 28.0381 26.5128H28.0031Z" fill="#0E8943"/>
<path d="M31.1163 38.9032C30.4863 38.9032 29.8913 38.7982 29.2963 38.5532C29.0863 38.4482 28.9463 38.2032 29.0513 37.9932C29.1563 37.7832 29.4013 37.6782 29.6113 37.7482C30.2763 38.0282 31.0463 38.0982 31.7463 37.9932C32.0263 37.9932 32.2013 38.1332 32.2363 38.3432C32.2713 38.5882 32.0963 38.7982 31.8863 38.8332C31.6413 38.8682 31.3613 38.9032 31.1163 38.9032Z" fill="#0E8943"/>
<path d="M30.7311 32.9182H30.6611L30.3811 32.8482C29.5411 32.6732 28.7711 32.2182 28.2811 31.5182C28.1061 31.3082 27.9311 31.0982 27.7211 30.8882C27.5461 30.7132 27.5461 30.4332 27.7211 30.2582C27.8961 30.0832 28.1761 30.0832 28.3511 30.2582C28.5961 30.5032 28.8061 30.7482 29.0161 31.0282C29.3661 31.5532 29.9261 31.9032 30.5561 32.0082L30.8361 32.0782C31.0811 32.1132 31.2211 32.3582 31.1861 32.6032C31.1511 32.8132 30.9761 32.9532 30.7661 32.9532L30.7311 32.9182Z" fill="#0E8943"/>
<path d="M17.746 25.0429C17.746 25.0429 17.606 25.0429 17.571 25.0079L14.841 23.7129C14.631 23.6079 14.526 23.3629 14.631 23.1179C14.736 22.9079 15.016 22.8029 15.226 22.9079L17.956 24.2029C18.166 24.3079 18.271 24.5529 18.166 24.7979C18.096 24.9379 17.921 25.0429 17.781 25.0429H17.746Z" fill="#0E8943"/>
<path d="M15.016 33.7929C15.016 33.7929 14.701 33.6879 14.631 33.5479C14.526 33.3379 14.631 33.0579 14.841 32.9529L17.571 31.6579C17.781 31.5529 18.061 31.6579 18.166 31.8679C18.271 32.0779 18.166 32.3579 17.956 32.4629L15.226 33.7579C15.226 33.7579 15.086 33.7929 15.051 33.7929H15.016Z" fill="#0E8943"/>
<path d="M17.7469 28.8927H14.8419C14.5969 28.8927 14.4219 28.6827 14.4219 28.4727C14.4219 28.2627 14.6319 28.0527 14.8419 28.0527H17.7469C17.9919 28.0527 18.1669 28.2627 18.1669 28.4727C18.1669 28.6827 17.9569 28.8927 17.7469 28.8927Z" fill="#0E8943"/>
<path d="M38.2582 25.0429C38.2582 25.0429 37.9432 24.9379 37.8732 24.7979C37.7682 24.5879 37.8732 24.3079 38.0832 24.2029L40.8132 22.9079C41.0232 22.8029 41.3032 22.9079 41.4082 23.1179C41.5132 23.3279 41.4082 23.6079 41.1982 23.7129L38.4682 25.0079C38.4682 25.0079 38.3282 25.0429 38.2932 25.0429H38.2582Z" fill="#0E8943"/>
<path d="M40.9882 33.7929C40.9882 33.7929 40.8482 33.7929 40.8132 33.7579L38.0832 32.4629C37.8732 32.3579 37.7682 32.1129 37.8732 31.8679C37.9782 31.6579 38.2232 31.5529 38.4682 31.6579L41.1982 32.9529C41.4082 33.0579 41.5132 33.3029 41.4082 33.5479C41.3382 33.6879 41.1632 33.7929 41.0232 33.7929H40.9882Z" fill="#0E8943"/>
<path d="M41.1648 28.8927H38.2598C38.0148 28.8927 37.8398 28.6827 37.8398 28.4727C37.8398 28.2627 38.0498 28.0527 38.2598 28.0527H41.1648C41.4098 28.0527 41.5848 28.2627 41.5848 28.4727C41.5848 28.6827 41.3748 28.8927 41.1648 28.8927Z" fill="#0E8943"/>
<path d="M31.8183 49.788C31.5733 49.788 31.3983 49.578 31.3983 49.368V38.448C31.3983 38.238 31.5383 38.063 31.7483 38.028C32.6933 37.888 33.5333 37.398 34.1633 36.698C34.8983 35.928 35.2833 34.913 35.2483 33.863C35.2483 32.463 34.5133 31.238 33.3583 30.468C32.7283 30.048 32.0283 29.838 31.3283 29.803C30.9433 29.768 30.5583 29.803 30.1033 29.943C29.4383 30.118 28.8083 30.433 28.3533 30.923C28.1783 31.098 27.9333 31.098 27.7583 30.923C26.9183 30.153 25.8333 29.733 24.7483 29.803C24.3633 29.803 23.9433 29.873 23.5583 30.083C21.9483 30.643 20.8633 32.183 20.8283 33.863V34.073C20.8283 35.263 21.4233 36.418 22.3683 37.153C22.7183 37.433 23.0333 37.748 23.4183 38.133C24.2583 39.218 24.6783 40.548 24.6783 41.808V43.838C24.6783 44.083 24.4683 44.258 24.2583 44.258C24.0483 44.258 23.8383 44.048 23.8383 43.838V41.808C23.8383 40.688 23.4533 39.603 22.7883 38.658C22.4733 38.308 22.1933 38.028 21.8783 37.783C20.7233 36.873 20.0233 35.473 19.9883 34.038V33.828C20.0233 31.763 21.3533 29.908 23.2433 29.243C23.6983 28.998 24.2583 28.928 24.7133 28.893C25.9033 28.823 27.0933 29.208 28.0733 29.978C28.5983 29.523 29.2633 29.208 29.9283 29.033C30.4883 28.893 30.9783 28.858 31.4333 28.893C32.2383 28.893 33.1133 29.208 33.8833 29.698C35.2833 30.608 36.1583 32.148 36.1933 33.793C36.2283 35.053 35.7383 36.313 34.8983 37.223C34.2683 37.958 33.3583 38.518 32.3433 38.763V49.333C32.3433 49.578 32.1333 49.753 31.9233 49.753L31.8183 49.788Z" fill="#0E8943"/>
<path d="M24.1856 49.7532C23.9406 49.7532 23.7656 49.5432 23.7656 49.3332V46.2882C23.7656 46.0432 23.9756 45.8682 24.1856 45.8682C24.3956 45.8682 24.6056 46.0782 24.6056 46.2882V49.3332C24.6056 49.5782 24.3956 49.7532 24.1856 49.7532Z" fill="#0E8943"/>
<path d="M31.1531 27.7731C30.2431 27.7731 29.3331 27.5281 28.5281 27.0381C28.3531 26.8981 28.1781 26.7931 28.0381 26.6881C27.1281 27.3881 26.0081 27.7731 24.8531 27.7731C24.8181 27.7731 24.7481 27.7731 24.7131 27.7731C23.9081 27.7381 23.1381 27.4931 22.4031 27.0381C20.9331 26.1981 19.9881 24.5881 19.9531 22.8731C19.9531 21.6131 20.4081 20.3531 21.2831 19.4081C21.3181 19.3731 21.3881 19.3381 21.4581 19.3031C22.1231 18.5681 22.8931 18.1131 23.8031 17.9031V7.33309C23.8031 7.08809 24.0131 6.91309 24.2231 6.91309C24.4331 6.91309 24.6431 7.12309 24.6431 7.33309V18.2531C24.6431 18.4631 24.4681 18.6731 24.2581 18.6731C23.3831 18.7781 22.6131 19.2331 21.9831 19.9681C21.9481 20.0381 21.8781 20.0731 21.8081 20.1081C21.1431 20.8781 20.7931 21.8581 20.7931 22.8381C20.7931 24.2731 21.5981 25.5681 22.8231 26.3031C23.4531 26.6881 24.0831 26.8631 24.7131 26.8981C24.7481 26.8981 24.7831 26.8981 24.8531 26.8981C25.9381 26.8981 26.9531 26.5131 27.7231 25.7781C27.8981 25.6381 28.1431 25.6381 28.3181 25.7781C28.5631 25.9881 28.7731 26.1281 29.0181 26.3031C29.7181 26.7231 30.5231 26.8981 31.3281 26.8981C31.9931 26.8981 32.6931 26.6531 33.3581 26.2331C34.5131 25.4981 35.2131 24.2381 35.2481 22.8381C35.2481 22.4181 35.2131 22.1031 35.1081 21.8231C35.0031 21.4031 34.8631 21.0181 34.5831 20.5631C34.4431 20.3531 34.5131 20.0731 34.7231 19.9681C34.9331 19.8281 35.2131 19.8981 35.3181 20.1081C35.6331 20.6331 35.8431 21.1231 35.9131 21.6131C36.0181 21.9281 36.0531 22.3481 36.0531 22.8731C36.0181 24.5531 35.1431 26.0931 33.7431 27.0031C32.9731 27.4931 32.1331 27.7731 31.2931 27.8081C31.2231 27.8081 31.1531 27.8081 31.0831 27.8081L31.1531 27.7731Z" fill="#0E8943"/>
<path d="M33.2534 18.9531C33.2534 18.9531 33.0084 18.9181 32.9384 18.8131C31.9234 17.6931 31.3984 16.2931 31.3984 14.8231V7.33309C31.3984 7.08809 31.6084 6.91309 31.8184 6.91309C32.0284 6.91309 32.2384 7.12309 32.2384 7.33309V14.8581C32.2384 16.0831 32.6934 17.3081 33.5684 18.2531C33.7434 18.4281 33.7084 18.7081 33.5684 18.8831C33.4984 18.9531 33.3934 18.9881 33.2884 18.9881L33.2534 18.9531Z" fill="#0E8943"/>
</g>
</svg>
