<svg width="56" height="57" viewBox="0 0 56 57" fill="none" xmlns="http://www.w3.org/2000/svg">
<mask id="mask0_2167_3421" style="mask-type:luminance" maskUnits="userSpaceOnUse" x="0" y="0" width="56" height="57">
<path d="M56 0.666992H0V56.667H56V0.666992Z" fill="white"/>
</mask>
<g mask="url(#mask0_2167_3421)">
<mask id="mask1_2167_3421" style="mask-type:luminance" maskUnits="userSpaceOnUse" x="0" y="1" width="56" height="57">
<path d="M56 1.00049H0V57.0005H56V1.00049Z" fill="white"/>
</mask>
<g mask="url(#mask1_2167_3421)">
<path fill-rule="evenodd" clip-rule="evenodd" d="M41.402 48.2857V48.8457C41.402 49.7207 42.032 50.4557 41.087 50.4557H8.01203C7.10203 50.4557 6.33203 49.7207 6.33203 48.8457V36.6307C6.33203 33.7257 7.97703 31.2057 10.392 29.8057H10.427C13.017 31.6607 14.977 34.4957 16.832 37.1907C19.282 40.7607 22.082 44.5407 26.212 45.7307C28.207 46.2907 30.342 46.2207 32.407 46.1157C34.472 46.0457 36.642 45.9407 38.602 46.6407C39.617 46.9557 40.597 47.5157 41.367 48.2857H41.402Z" fill="#0E8943"/>
<path fill-rule="evenodd" clip-rule="evenodd" d="M6.36684 48.8457V41.8457C7.83684 42.3707 9.20184 43.1407 10.0768 43.8057C11.5118 44.9257 12.6668 46.4307 14.2768 47.3757C16.5868 48.7057 19.4568 48.5657 22.1518 48.3207C23.6218 48.2507 25.1968 48.1107 26.5618 48.6707C27.3318 49.0207 27.9968 49.6857 28.3468 50.4207H6.68184C5.77184 50.4207 6.36684 49.6857 6.36684 48.8107V48.8457Z" fill="#0E8943"/>
<path fill-rule="evenodd" clip-rule="evenodd" d="M33.178 16.8556C33.178 19.9356 31.708 22.5956 29.468 24.3106C28.943 24.2756 28.383 24.2056 27.858 24.1006C26.563 23.8906 25.268 23.7156 24.078 23.1556C22.923 22.5956 21.873 21.5806 21.558 20.3206C21.208 18.9206 21.803 17.4856 22.188 16.0856C22.958 13.6006 23.098 10.5556 21.278 8.73556C21.068 8.52556 20.823 8.35057 20.543 8.21057C21.593 7.82557 22.748 7.58057 23.903 7.58057C29.013 7.58057 33.178 11.7456 33.178 16.8556Z" fill="#0E8943"/>
<path d="M23.9052 26.7605C26.0402 26.7605 28.1052 26.0955 29.8202 24.8005C32.3402 22.8755 33.7752 19.9705 33.7752 16.8555C33.7752 11.4305 29.3652 7.02051 23.9402 7.02051C22.7502 7.02051 21.5252 7.2655 20.3702 7.6855C16.5902 9.1205 14.0352 12.7955 14.0352 16.8555C14.0352 22.3155 18.4802 26.7605 23.9402 26.7605H23.9052ZM15.1902 16.8555C15.1902 13.2855 17.4302 10.0305 20.7552 8.77051C21.7702 8.38551 22.8552 8.1755 23.9052 8.1755C28.7002 8.1755 32.5852 12.0605 32.5852 16.8555C32.5852 19.6205 31.3252 22.1755 29.1202 23.8555C27.6152 24.9755 25.7952 25.5705 23.9052 25.5705C19.0752 25.5705 15.1902 21.6505 15.1902 16.8555Z" fill="#0E8943"/>
<path d="M6.36844 44.3657C6.05344 44.3657 5.77344 44.6107 5.77344 44.9607V50.4207C5.77344 50.7357 6.01844 51.0157 6.36844 51.0157C6.71844 51.0157 6.96344 50.7707 6.96344 50.4207V44.9607C6.96344 44.6457 6.71844 44.3657 6.36844 44.3657Z" fill="#0E8943"/>
<path d="M45.6034 41.5306C47.2134 39.7106 48.1234 37.4356 48.1234 34.9856C48.1234 32.3256 47.1084 29.8406 45.2184 27.9856C43.3634 26.1306 40.8784 25.0806 38.2184 25.0806C35.5584 25.0806 33.0734 26.0956 31.2184 27.9856C31.1834 28.0206 31.1484 28.0906 31.0784 28.1256H29.0134C29.0134 28.1256 28.8734 28.1256 28.8034 28.1606C25.7584 29.3856 22.0134 29.3856 18.9684 28.1606C18.8984 28.1606 18.8284 28.1256 18.7584 28.1256H14.5584C13.0884 28.1256 11.5834 28.5106 10.2884 29.2106C10.2534 29.2106 10.1834 29.2106 10.1484 29.2806C7.41844 30.8556 5.77344 33.5856 5.77344 36.6306V41.6006C5.77344 41.9156 6.01844 42.1956 6.36844 42.1956C6.71844 42.1956 6.96344 41.9506 6.96344 41.6006V36.6306C6.96344 34.0756 8.32844 31.7306 10.6384 30.3656C10.6734 30.3656 10.7434 30.3656 10.7784 30.2956C11.9334 29.6306 13.2634 29.2806 14.5584 29.2806H18.6534C21.8734 30.5406 25.8984 30.5406 29.1534 29.2806H30.1684C28.9784 30.9256 28.3484 32.8856 28.3484 34.9856C28.3484 37.6456 29.3634 40.1306 31.2534 41.9856C33.1084 43.8406 35.6284 44.8906 38.2534 44.8906C39.1634 44.8906 40.0034 44.7156 40.8434 44.5056V50.4556C40.8434 50.7706 41.0884 51.0506 41.4384 51.0506C41.7884 51.0506 42.0334 50.8056 42.0334 50.4556V44.1556C43.0484 43.7356 43.9934 43.1056 44.8334 42.3706L46.8984 44.4356C46.8984 44.4356 47.1434 44.6106 47.3184 44.6106C47.4934 44.6106 47.6334 44.5406 47.7384 44.4356C47.9484 44.2256 47.9484 43.8406 47.7384 43.5956L45.6734 41.5306H45.6034ZM44.4134 41.1456C42.7684 42.7906 40.5634 43.7006 38.2184 43.7006C35.8734 43.7006 33.7034 42.7906 32.0234 41.1456C30.3784 39.5006 29.4684 37.2956 29.4684 34.9506C29.4684 32.6056 30.3784 30.4006 32.0234 28.7556C33.6684 27.1106 35.8734 26.2006 38.2184 26.2006C40.5634 26.2006 42.7334 27.1106 44.4134 28.7556C46.0584 30.4356 46.9334 32.6056 46.9334 34.9506C46.9334 37.2956 46.0234 39.5006 44.3784 41.1456H44.4134Z" fill="#0E8943"/>
<path d="M38.3934 32.8154C38.5334 32.2904 38.3934 31.7304 38.1134 31.2754C37.7984 30.8204 37.3434 30.5054 36.8184 30.4004C36.6784 30.3654 36.5034 30.4005 36.3984 30.4705C36.2584 30.5405 36.1534 30.6804 36.1534 30.8554C36.1534 30.9954 36.1534 31.1704 36.2584 31.3104C36.3284 31.4504 36.4684 31.5204 36.6434 31.5554C36.8534 31.5904 37.0634 31.7304 37.2034 31.9404C37.3434 32.1504 37.3784 32.3604 37.3084 32.6054C37.2734 32.8154 37.1334 33.0254 36.9234 33.1654C36.7134 33.3054 36.5034 33.3404 36.2584 33.2704C36.0134 33.2354 35.8384 33.0954 35.6984 32.8854C35.5584 32.6754 35.5234 32.4655 35.5934 32.2205C35.6634 31.9055 35.4534 31.5904 35.1384 31.5204C34.8234 31.4504 34.5084 31.6604 34.4384 31.9404C34.3334 32.4654 34.4384 33.0254 34.7184 33.4804C35.0334 33.9354 35.4884 34.2504 35.9784 34.3554C36.1184 34.3554 36.2584 34.3904 36.4334 34.3904C36.8184 34.3904 37.2034 34.2854 37.5184 34.0754C37.9734 33.7604 38.2884 33.3054 38.3934 32.7804V32.8154Z" fill="#0E8943"/>
<path d="M35.7 37.6456C35.385 37.5756 35.07 37.7856 35 38.1006C35 38.2406 35 38.4156 35.07 38.5206C35.14 38.6606 35.28 38.7306 35.455 38.7656C35.56 38.7656 35.665 38.7656 35.77 38.7656C36.47 38.7656 37.1 38.2756 37.24 37.5756C37.31 37.1906 37.24 36.7706 37.03 36.4556C36.82 36.1056 36.47 35.8956 36.085 35.7906C35.945 35.7556 35.805 35.7906 35.665 35.8606C35.525 35.9656 35.42 36.0706 35.385 36.2456C35.385 36.3856 35.385 36.5606 35.455 36.6656C35.525 36.8056 35.665 36.8756 35.805 36.9106C35.98 36.9456 36.12 37.1206 36.085 37.3306C36.085 37.4356 36.015 37.5056 35.945 37.5406C35.875 37.5756 35.77 37.6106 35.665 37.5756L35.7 37.6456Z" fill="#0E8943"/>
<path d="M41.1581 31.7655C41.4731 31.8355 41.7881 31.6255 41.8581 31.3105C41.8581 31.1705 41.8581 30.9955 41.7881 30.8905C41.7181 30.7505 41.5781 30.6805 41.4031 30.6455C41.3331 30.6455 41.2281 30.6455 41.1581 30.6455C40.5631 30.6455 40.0381 31.0655 39.9331 31.6255C39.8631 31.9405 39.9331 32.2905 40.1081 32.5705C40.2831 32.8505 40.5631 33.0605 40.8781 33.0955C40.9131 33.0955 40.9481 33.0955 41.0181 33.0955C41.2981 33.0955 41.5431 32.9205 41.5781 32.6405C41.5781 32.5005 41.5781 32.3255 41.5081 32.2205C41.4381 32.1155 41.2981 32.0105 41.1581 31.9755C41.1581 31.9755 41.0881 31.9055 41.0881 31.8705C41.0881 31.8705 41.0881 31.8355 41.1231 31.8005C41.1231 31.8005 41.1581 31.8005 41.1931 31.8005L41.1581 31.7655Z" fill="#0E8943"/>
<path d="M40.4584 37.2952C40.4584 37.2952 40.3884 37.0852 40.3884 37.0152C40.3884 36.8752 40.3884 36.7002 40.3184 36.5602C40.2484 36.4202 40.1084 36.3502 39.9684 36.3152C39.6534 36.2452 39.3384 36.4552 39.2684 36.7702C39.1984 37.1902 39.2684 37.6102 39.4784 37.9252C39.7234 38.2752 40.0734 38.5203 40.4584 38.5903C40.4934 38.5903 40.5284 38.5903 40.5984 38.5903C40.8784 38.5903 41.1234 38.3802 41.1584 38.1352C41.1584 37.9952 41.1584 37.8203 41.0884 37.7153C41.0184 37.6103 40.8784 37.5053 40.7384 37.4703C40.6334 37.4703 40.5634 37.4002 40.4934 37.2952H40.4584Z" fill="#0E8943"/>
<path d="M25.1269 11.9206C26.3869 12.2356 27.4369 13.0056 28.1719 14.0906C28.2769 14.2656 28.4519 14.3356 28.6619 14.3356C28.7669 14.3356 28.9069 14.3006 28.9769 14.2306C29.1169 14.1606 29.1869 14.0206 29.2219 13.8456C29.2219 13.7056 29.2219 13.5306 29.1519 13.4256C28.2769 12.0956 26.9469 11.1856 25.4419 10.8006C25.3019 10.7656 25.1619 10.8006 25.0219 10.8356C24.8819 10.9056 24.7769 11.0456 24.7419 11.2206C24.6719 11.5356 24.8469 11.8506 25.1619 11.9206H25.1269Z" fill="#0E8943"/>
<path d="M28.9781 16.0857C29.0831 16.7507 29.0481 17.4507 28.8731 18.1507C28.8381 18.2907 28.8731 18.4657 28.9431 18.6057C29.0131 18.7457 29.1531 18.8157 29.2931 18.8507C29.3281 18.8507 29.3981 18.8507 29.4331 18.8507C29.7131 18.8507 29.9231 18.6757 29.9931 18.3957C30.2031 17.5557 30.2381 16.7157 30.0981 15.8757C30.0631 15.5607 29.8181 15.3857 29.5031 15.3857H29.4331C29.2931 15.3857 29.1531 15.4907 29.0481 15.6307C28.9431 15.7707 28.9081 15.9107 28.9431 16.0507L28.9781 16.0857Z" fill="#0E8943"/>
<path d="M50.085 46.0105L49.105 45.0305C48.895 44.8205 48.51 44.8205 48.3 45.0305C48.195 45.1355 48.125 45.2755 48.125 45.4505C48.125 45.6255 48.195 45.7655 48.3 45.8705L49.28 46.8505C49.28 46.8505 49.525 47.0255 49.7 47.0255C49.875 47.0255 50.015 46.9555 50.12 46.8505C50.33 46.6405 50.33 46.2555 50.12 46.0105H50.085Z" fill="#0E8943"/>
<path d="M44.7628 35.8255C44.4478 35.7555 44.1328 35.9655 44.0628 36.2805C43.9928 36.5955 43.9228 36.8755 43.8178 37.1205C43.7478 37.2605 43.7828 37.4355 43.8178 37.5755C43.8878 37.7155 43.9928 37.8205 44.1328 37.8905C44.2028 37.8905 44.2728 37.9255 44.3428 37.9255C44.5878 37.9255 44.7978 37.7855 44.9028 37.5405C45.0078 37.2255 45.1128 36.8755 45.1828 36.5605C45.2528 36.2455 45.0428 35.9305 44.7278 35.8605L44.7628 35.8255Z" fill="#0E8943"/>
<path d="M38.218 27.8105C36.293 27.8105 34.508 28.5455 33.143 29.9105C31.778 31.2755 31.043 33.0605 31.043 34.9855C31.043 36.9105 31.778 38.6955 33.143 40.0605C34.508 41.4255 36.293 42.1605 38.218 42.1605C40.143 42.1605 41.928 41.4255 43.293 40.0605C43.608 39.7455 43.888 39.3955 44.133 39.0455C44.308 38.8005 44.238 38.4155 43.993 38.2405C43.853 38.1705 43.713 38.1355 43.573 38.1355C43.433 38.1355 43.293 38.2405 43.188 38.3805C42.978 38.6955 42.733 38.9755 42.488 39.2555C41.368 40.3755 39.863 41.0055 38.253 41.0055C36.643 41.0055 35.138 40.3755 34.018 39.2555C32.898 38.1355 32.268 36.6306 32.268 35.0206C32.268 33.4106 32.898 31.9055 34.018 30.7855C35.138 29.6655 36.643 29.0355 38.253 29.0355C39.863 29.0355 41.368 29.6655 42.488 30.7855C43.538 31.8355 44.168 33.2005 44.238 34.6705C44.238 34.8455 44.308 34.9856 44.448 35.0906C44.553 35.1956 44.693 35.2305 44.833 35.2305C44.833 35.2305 44.833 35.2305 44.868 35.2305C45.183 35.2305 45.428 34.9505 45.428 34.6005C45.323 32.8505 44.588 31.2055 43.328 29.9455C41.963 28.5805 40.178 27.8456 38.253 27.8456L38.218 27.8105Z" fill="#0E8943"/>
</g>
</g>
</svg>
